<svg id="ic_uzcard_blue_copy_4" data-name="ic_uzcard_blue copy 4" xmlns="http://www.w3.org/2000/svg" xmlns:xlink="http://www.w3.org/1999/xlink" width="44" height="28" viewBox="0 0 44 28">
  <defs>
    <clipPath id="clip-path">
      <rect id="Mask" width="44" height="28" rx="4" fill="#fff" stroke="#f4f4f4" stroke-miterlimit="10" stroke-width="1"/>
    </clipPath>
    <clipPath id="clip-path-2">
      <path id="path-1" d="M5.816,11.628a3.556,3.556,0,0,1-1.689-.487A6.855,6.855,0,0,1,2.209,9.708,9.859,9.859,0,0,1,.446,7.46,3.851,3.851,0,0,1,0,5.83V5.746A3.455,3.455,0,0,1,.358,4.331,7.49,7.49,0,0,1,2.026,2.177l.007-.007A10.874,10.874,0,0,1,4.237.408,2.78,2.78,0,0,1,5.658,0a3.7,3.7,0,0,1,1.73.517,9.428,9.428,0,0,1,2.2,1.631,7.083,7.083,0,0,1,1.52,2.179,3.346,3.346,0,0,1-.043,3.133A8,8,0,0,1,9.548,9.421a12,12,0,0,1-2.16,1.719A2.951,2.951,0,0,1,5.816,11.628ZM5.264.562h0A2.429,2.429,0,0,0,4.025.918,9.431,9.431,0,0,0,2.1,2.456l-.017.017A6.518,6.518,0,0,0,.642,4.341,2.845,2.845,0,0,0,.718,7.07,8.612,8.612,0,0,0,2.256,9.032a6.007,6.007,0,0,0,1.672,1.249,3.106,3.106,0,0,0,1.474.425,2.573,2.573,0,0,0,1.372-.425,10.48,10.48,0,0,0,1.884-1.5A6.959,6.959,0,0,0,9.985,7.07a2.92,2.92,0,0,0,.038-2.733A6.167,6.167,0,0,0,8.7,2.437,8.192,8.192,0,0,0,6.774,1.014,3.225,3.225,0,0,0,5.264.563Z" transform="translate(0 0)" fill="none"/>
    </clipPath>
    <linearGradient id="linear-gradient" x1="0.366" y1="0.496" x2="-0.006" y2="0.496" gradientUnits="objectBoundingBox">
      <stop offset="0" stop-color="#0095cc"/>
      <stop offset="1" stop-color="#00799e"/>
    </linearGradient>
    <clipPath id="clip-path-3">
      <path id="path-4" d="M4.092,8.487a2.526,2.526,0,0,1-1.216-.379A6.627,6.627,0,0,1,1.328,6.916,5.185,5.185,0,0,1,.26,5.324,2.5,2.5,0,0,1,.291,3.033,5.832,5.832,0,0,1,1.358,1.6,8.532,8.532,0,0,1,2.876.343,1.956,1.956,0,0,1,3.949,0,2.722,2.722,0,0,1,5.167.343,4.353,4.353,0,0,1,6.513,1.39,7.2,7.2,0,0,1,7.752,3.033a2.473,2.473,0,0,1,.062,2.288A5.445,5.445,0,0,1,6.65,6.887L6.638,6.9A7.733,7.733,0,0,1,5.09,8.189,1.9,1.9,0,0,1,4.092,8.487ZM4.146.7a2.129,2.129,0,0,0-1.024.22A8.715,8.715,0,0,0,1.8,2.02,5.1,5.1,0,0,0,.867,3.27a2.209,2.209,0,0,0-.026,2,4.529,4.529,0,0,0,.931,1.39A6.2,6.2,0,0,0,3.122,7.7a2.466,2.466,0,0,0,1.091.221,2.107,2.107,0,0,0,.84-.151A4.673,4.673,0,0,0,6.422,6.682,4.941,4.941,0,0,0,7.43,5.266a2.157,2.157,0,0,0-.054-2A6.255,6.255,0,0,0,6.3,1.837,4.219,4.219,0,0,0,5.12.923,2.057,2.057,0,0,0,4.146.7Z" transform="translate(0.001 0.002)" fill="none"/>
    </clipPath>
    <linearGradient id="linear-gradient-2" x1="0.304" y1="0.498" x2="0.044" y2="0.498" gradientUnits="objectBoundingBox">
      <stop offset="0" stop-color="#008bb4"/>
      <stop offset="1" stop-color="#00ace5"/>
    </linearGradient>
    <clipPath id="clip-path-4">
      <path id="path-7" d="M4.673,9.557a2.968,2.968,0,0,1-1.409-.429A7.674,7.674,0,0,1,1.47,7.774,5.881,5.881,0,0,1,.232,5.966,2.961,2.961,0,0,1,.353,3.414,5.28,5.28,0,0,1,1.506,1.738,7.6,7.6,0,0,1,3.189.406,2.869,2.869,0,0,1,4.641,0a2.841,2.841,0,0,1,1.28.311A5.035,5.035,0,0,1,7.483,1.5,8.167,8.167,0,0,1,8.919,3.366a2.753,2.753,0,0,1,.071,2.6A6.223,6.223,0,0,1,7.635,7.748l-.008.008a8.782,8.782,0,0,1-1.8,1.463A2.233,2.233,0,0,1,4.673,9.557ZM4.881.672a2.067,2.067,0,0,0-1.117.353A8.823,8.823,0,0,0,2.18,2.246,5.691,5.691,0,0,0,1.15,3.689,2.462,2.462,0,0,0,1.12,5.957,5.129,5.129,0,0,0,2.2,7.535,6.716,6.716,0,0,0,3.765,8.716a2.6,2.6,0,0,0,1.23.374A1.947,1.947,0,0,0,6,8.795,7.727,7.727,0,0,0,7.57,7.519l0,0A5.435,5.435,0,0,0,8.76,5.955,2.4,2.4,0,0,0,8.7,3.689,7.083,7.083,0,0,0,7.444,2.062,4.874,4.874,0,0,0,6.082,1.024,2.5,2.5,0,0,0,4.881.672Z" transform="translate(0.002 0.001)" fill="none"/>
    </clipPath>
    <linearGradient id="linear-gradient-3" x1="0.033" y1="0.533" x2="0.332" y2="0.533" gradientUnits="objectBoundingBox">
      <stop offset="0" stop-color="#0085ac"/>
      <stop offset="1" stop-color="#066d97"/>
    </linearGradient>
  </defs>
  <g id="Mask-2" data-name="Mask" fill="#fff" stroke="#f4f4f4" stroke-miterlimit="10" stroke-width="1">
    <rect width="44" height="28" rx="4" stroke="none"/>
    <rect x="0.5" y="0.5" width="43" height="27" rx="3.5" fill="none"/>
  </g>
  <g id="ic_uzcard_blue_copy_4-2" data-name="ic_uzcard_blue copy 4" clip-path="url(#clip-path)">
    <g id="click_logo" data-name="click logo" transform="translate(6 8)">
      <path id="Combined_Shape" data-name="Combined Shape" d="M5.1,9.912a3.809,3.809,0,0,1-1.641-.423,5.14,5.14,0,0,1-1.6-1.22A8.416,8.416,0,0,1,.373,6.354,2.826,2.826,0,0,1,.3,3.688a6.33,6.33,0,0,1,1.354-1.84A9.531,9.531,0,0,1,3.548.347,2.3,2.3,0,0,1,4.738,0,3.06,3.06,0,0,1,6.187.441,7.89,7.89,0,0,1,8.033,1.83,6.038,6.038,0,0,1,9.3,3.686a2.89,2.89,0,0,1-.036,2.668,6.8,6.8,0,0,1-1.273,1.67l-.245.253A8.294,8.294,0,0,1,6.247,9.6,2.145,2.145,0,0,1,5.1,9.912ZM4.592.662a2.541,2.541,0,0,0-1,.175A5.624,5.624,0,0,0,1.916,2.079,5.783,5.783,0,0,0,.758,3.753,2.46,2.46,0,0,0,.823,6.079,7.824,7.824,0,0,0,1.969,7.784,5.91,5.91,0,0,0,3.378,8.989a3.555,3.555,0,0,0,1.774.634,1.852,1.852,0,0,0,.706-.139A7.571,7.571,0,0,0,7.706,7.89L7.79,7.8a4.908,4.908,0,0,0,1.151-1.74A3.316,3.316,0,0,0,8.7,3.716,5.241,5.241,0,0,0,7.5,2.132,7.349,7.349,0,0,0,5.893.92,3,3,0,0,0,4.592.662Z" transform="translate(0.607 0.7)" fill="#28acd4"/>
      <g id="Group-4">
        <g id="Fill-2_Clipped" data-name="Fill-2 Clipped">
          <path id="path-1-2" data-name="path-1" d="M5.816,11.628a3.556,3.556,0,0,1-1.689-.487A6.855,6.855,0,0,1,2.209,9.708,9.859,9.859,0,0,1,.446,7.46,3.851,3.851,0,0,1,0,5.83V5.746A3.455,3.455,0,0,1,.358,4.331,7.49,7.49,0,0,1,2.026,2.177l.007-.007A10.874,10.874,0,0,1,4.237.408,2.78,2.78,0,0,1,5.658,0a3.7,3.7,0,0,1,1.73.517,9.428,9.428,0,0,1,2.2,1.631,7.083,7.083,0,0,1,1.52,2.179,3.346,3.346,0,0,1-.043,3.133A8,8,0,0,1,9.548,9.421a12,12,0,0,1-2.16,1.719A2.951,2.951,0,0,1,5.816,11.628ZM5.264.562h0A2.429,2.429,0,0,0,4.025.918,9.431,9.431,0,0,0,2.1,2.456l-.017.017A6.518,6.518,0,0,0,.642,4.341,2.845,2.845,0,0,0,.718,7.07,8.612,8.612,0,0,0,2.256,9.032a6.007,6.007,0,0,0,1.672,1.249,3.106,3.106,0,0,0,1.474.425,2.573,2.573,0,0,0,1.372-.425,10.48,10.48,0,0,0,1.884-1.5A6.959,6.959,0,0,0,9.985,7.07a2.92,2.92,0,0,0,.038-2.733A6.167,6.167,0,0,0,8.7,2.437,8.192,8.192,0,0,0,6.774,1.014,3.225,3.225,0,0,0,5.264.563Z" transform="translate(0 0)" fill="none"/>
          <g id="Fill-2_Clipped-2" data-name="Fill-2 Clipped" clip-path="url(#clip-path-2)">
            <path id="Fill-2" d="M0,11.63H31.908V0H0Z" transform="translate(0 0)" fill="url(#linear-gradient)"/>
          </g>
        </g>
      </g>
      <g id="Group-7" transform="translate(1.519 1.511)">
        <g id="Fill-5_Clipped" data-name="Fill-5 Clipped">
          <path id="path-4-2" data-name="path-4" d="M4.092,8.487a2.526,2.526,0,0,1-1.216-.379A6.627,6.627,0,0,1,1.328,6.916,5.185,5.185,0,0,1,.26,5.324,2.5,2.5,0,0,1,.291,3.033,5.832,5.832,0,0,1,1.358,1.6,8.532,8.532,0,0,1,2.876.343,1.956,1.956,0,0,1,3.949,0,2.722,2.722,0,0,1,5.167.343,4.353,4.353,0,0,1,6.513,1.39,7.2,7.2,0,0,1,7.752,3.033a2.473,2.473,0,0,1,.062,2.288A5.445,5.445,0,0,1,6.65,6.887L6.638,6.9A7.733,7.733,0,0,1,5.09,8.189,1.9,1.9,0,0,1,4.092,8.487ZM4.146.7a2.129,2.129,0,0,0-1.024.22A8.715,8.715,0,0,0,1.8,2.02,5.1,5.1,0,0,0,.867,3.27a2.209,2.209,0,0,0-.026,2,4.529,4.529,0,0,0,.931,1.39A6.2,6.2,0,0,0,3.122,7.7a2.466,2.466,0,0,0,1.091.221,2.107,2.107,0,0,0,.84-.151A4.673,4.673,0,0,0,6.422,6.682,4.941,4.941,0,0,0,7.43,5.266a2.157,2.157,0,0,0-.054-2A6.255,6.255,0,0,0,6.3,1.837,4.219,4.219,0,0,0,5.12.923,2.057,2.057,0,0,0,4.146.7Z" transform="translate(0.001 0.002)" fill="none"/>
          <g id="Fill-5_Clipped-2" data-name="Fill-5 Clipped" clip-path="url(#clip-path-3)">
            <path id="Fill-5" d="M0,11.63H31.908V0H0Z" transform="translate(-1.519 -1.511)" fill="url(#linear-gradient-2)"/>
          </g>
        </g>
      </g>
      <g id="Group-11" transform="translate(1.165 1.352)">
        <g id="Fill-9_Clipped" data-name="Fill-9 Clipped">
          <path id="path-7-2" data-name="path-7" d="M4.673,9.557a2.968,2.968,0,0,1-1.409-.429A7.674,7.674,0,0,1,1.47,7.774,5.881,5.881,0,0,1,.232,5.966,2.961,2.961,0,0,1,.353,3.414,5.28,5.28,0,0,1,1.506,1.738,7.6,7.6,0,0,1,3.189.406,2.869,2.869,0,0,1,4.641,0a2.841,2.841,0,0,1,1.28.311A5.035,5.035,0,0,1,7.483,1.5,8.167,8.167,0,0,1,8.919,3.366a2.753,2.753,0,0,1,.071,2.6A6.223,6.223,0,0,1,7.635,7.748l-.008.008a8.782,8.782,0,0,1-1.8,1.463A2.233,2.233,0,0,1,4.673,9.557ZM4.881.672a2.067,2.067,0,0,0-1.117.353A8.823,8.823,0,0,0,2.18,2.246,5.691,5.691,0,0,0,1.15,3.689,2.462,2.462,0,0,0,1.12,5.957,5.129,5.129,0,0,0,2.2,7.535,6.716,6.716,0,0,0,3.765,8.716a2.6,2.6,0,0,0,1.23.374A1.947,1.947,0,0,0,6,8.795,7.727,7.727,0,0,0,7.57,7.519l0,0A5.435,5.435,0,0,0,8.76,5.955,2.4,2.4,0,0,0,8.7,3.689,7.083,7.083,0,0,0,7.444,2.062,4.874,4.874,0,0,0,6.082,1.024,2.5,2.5,0,0,0,4.881.672Z" transform="translate(0.002 0.001)" fill="none"/>
          <g id="Fill-9_Clipped-2" data-name="Fill-9 Clipped" clip-path="url(#clip-path-4)">
            <path id="Fill-9" d="M0,11.63H31.908V0H0Z" transform="translate(-1.165 -1.352)" fill="url(#linear-gradient-3)"/>
          </g>
        </g>
      </g>
      <path id="Fill-12" d="M11.425,5.291a1.926,1.926,0,0,1-.743-.5,2.209,2.209,0,0,1-.471-.832A3.724,3.724,0,0,1,10.049,2.8a3.654,3.654,0,0,1,.18-1.2,2.5,2.5,0,0,1,.5-.879A2.1,2.1,0,0,1,11.5.185,2.6,2.6,0,0,1,12.5,0a2.543,2.543,0,0,1,.8.134,1.783,1.783,0,0,1,.312.137.958.958,0,0,1,.194.134A.571.571,0,0,1,13.884.5a.3.3,0,0,1,.031.094.985.985,0,0,1,.02.135c0,.052.005.114.005.192s0,.15-.008.208a.576.576,0,0,1-.028.138.2.2,0,0,1-.049.076.1.1,0,0,1-.066.025.28.28,0,0,1-.155-.071,2.8,2.8,0,0,0-.243-.159,1.908,1.908,0,0,0-.356-.158A1.5,1.5,0,0,0,12.546.9a1.159,1.159,0,0,0-.981.5,1.739,1.739,0,0,0-.264.579,2.962,2.962,0,0,0-.089.763,2.971,2.971,0,0,0,.1.807,1.554,1.554,0,0,0,.274.561,1.083,1.083,0,0,0,.428.328,1.407,1.407,0,0,0,.565.109,1.645,1.645,0,0,0,.494-.067,2.217,2.217,0,0,0,.356-.148c.1-.054.181-.1.245-.146a.3.3,0,0,1,.149-.066.113.113,0,0,1,.065.016.125.125,0,0,1,.041.066.715.715,0,0,1,.023.137c.006.06.009.139.009.238,0,.068,0,.127-.005.174a.886.886,0,0,1-.02.123.3.3,0,0,1-.032.089.441.441,0,0,1-.066.083.811.811,0,0,1-.173.12,2.217,2.217,0,0,1-.315.139,2.886,2.886,0,0,1-.942.155A2.722,2.722,0,0,1,11.425,5.291Zm-10.048,0a1.926,1.926,0,0,1-.743-.5,2.209,2.209,0,0,1-.471-.832A3.724,3.724,0,0,1,0,2.8,3.678,3.678,0,0,1,.18,1.6a2.5,2.5,0,0,1,.5-.879A2.1,2.1,0,0,1,1.457.185,2.592,2.592,0,0,1,2.452,0a2.328,2.328,0,0,1,.424.038,2.317,2.317,0,0,1,.378.1,1.823,1.823,0,0,1,.313.137A.973.973,0,0,1,3.76.405.525.525,0,0,1,3.836.5.325.325,0,0,1,3.868.59a1,1,0,0,1,.019.135c0,.052.005.114.005.192s0,.15-.008.208a.576.576,0,0,1-.028.138.19.19,0,0,1-.049.076.1.1,0,0,1-.066.025.283.283,0,0,1-.155-.071,2.8,2.8,0,0,0-.243-.159A1.908,1.908,0,0,0,2.989.976,1.5,1.5,0,0,0,2.5.9a1.159,1.159,0,0,0-.981.5,1.757,1.757,0,0,0-.264.579,3,3,0,0,0-.089.763,3.007,3.007,0,0,0,.1.807,1.554,1.554,0,0,0,.274.561,1.086,1.086,0,0,0,.428.328,1.4,1.4,0,0,0,.565.109,1.649,1.649,0,0,0,.494-.067,2.205,2.205,0,0,0,.355-.148c.1-.054.181-.1.246-.146a.3.3,0,0,1,.149-.066.112.112,0,0,1,.064.016.12.12,0,0,1,.041.066.7.7,0,0,1,.024.137c.005.06.008.139.008.238,0,.068,0,.127-.005.174a.886.886,0,0,1-.02.123.323.323,0,0,1-.032.089.481.481,0,0,1-.066.083.849.849,0,0,1-.174.12A2.217,2.217,0,0,1,3.3,5.3a2.875,2.875,0,0,1-.941.155A2.724,2.724,0,0,1,1.377,5.291Zm16.22.088a.352.352,0,0,1-.167-.062.3.3,0,0,1-.08-.1l-1.6-2.512V5.22a.133.133,0,0,1-.025.078.175.175,0,0,1-.085.054.71.71,0,0,1-.163.035,2.254,2.254,0,0,1-.26.013,2.3,2.3,0,0,1-.259-.013.717.717,0,0,1-.165-.035.225.225,0,0,1-.088-.054.123.123,0,0,1-.026-.078V.234a.115.115,0,0,1,.026-.077A.2.2,0,0,1,14.793.1a.791.791,0,0,1,.165-.032,2.3,2.3,0,0,1,.259-.013,2.254,2.254,0,0,1,.26.013A.782.782,0,0,1,15.64.1a.169.169,0,0,1,.085.053.125.125,0,0,1,.025.077V2.488L17.3.238A.307.307,0,0,1,17.369.15a.311.311,0,0,1,.106-.056.919.919,0,0,1,.167-.028c.068-.005.155-.008.261-.008a2.429,2.429,0,0,1,.269.013.785.785,0,0,1,.17.035.17.17,0,0,1,.086.054.116.116,0,0,1,.025.074.34.34,0,0,1-.036.144c-.025.049-.071.126-.139.233l-1.448,1.9L18.411,4.9a1.951,1.951,0,0,1,.109.224.272.272,0,0,1,.018.087.133.133,0,0,1-.022.08.163.163,0,0,1-.086.057.757.757,0,0,1-.173.035,2.592,2.592,0,0,1-.277.013A2.505,2.505,0,0,1,17.6,5.379Zm-9.2.008a.942.942,0,0,1-.166-.032A.192.192,0,0,1,8.145,5.3a.112.112,0,0,1-.026-.074v-5A.112.112,0,0,1,8.145.157.188.188,0,0,1,8.236.1.829.829,0,0,1,8.4.071,2.253,2.253,0,0,1,8.659.059a2.289,2.289,0,0,1,.262.013A.806.806,0,0,1,9.085.1a.188.188,0,0,1,.087.053A.109.109,0,0,1,9.2.23v5a.109.109,0,0,1-.027.074.188.188,0,0,1-.087.053.952.952,0,0,1-.164.032,2.709,2.709,0,0,1-.522,0Zm-3.45-.013A.337.337,0,0,1,4.723,5.3a.325.325,0,0,1-.093-.26V.23A.113.113,0,0,1,4.658.157.188.188,0,0,1,4.745.1.8.8,0,0,1,4.911.071a2.709,2.709,0,0,1,.522,0A.808.808,0,0,1,5.6.1a.192.192,0,0,1,.088.053A.112.112,0,0,1,5.711.23V4.487H7.373a.116.116,0,0,1,.071.023.158.158,0,0,1,.051.074.485.485,0,0,1,.031.135,2.16,2.16,0,0,1,0,.413A.653.653,0,0,1,7.5,5.27a.164.164,0,0,1-.051.079.109.109,0,0,1-.071.025Z" transform="translate(13.367 3.033)" fill="#1a1919"/>
    </g>
  </g>
</svg>
