<svg width="16" height="16" viewBox="0 0 16 16" fill="none" xmlns="http://www.w3.org/2000/svg">
<path d="M6 10L10 6" stroke="white" stroke-width="1.3" stroke-linecap="round" stroke-linejoin="round"/>
<path d="M6.33333 6.66667C6.51743 6.66667 6.66667 6.51743 6.66667 6.33333C6.66667 6.14924 6.51743 6 6.33333 6C6.14924 6 6 6.14924 6 6.33333C6 6.51743 6.14924 6.66667 6.33333 6.66667Z" stroke="white" stroke-width="1.3" stroke-linecap="round" stroke-linejoin="round"/>
<path d="M9.66634 10C9.85044 10 9.99968 9.8508 9.99968 9.66671C9.99968 9.48261 9.85044 9.33337 9.66634 9.33337C9.48225 9.33337 9.33301 9.48261 9.33301 9.66671C9.33301 9.8508 9.48225 10 9.66634 10Z" stroke="white" stroke-width="1.3" stroke-linecap="round" stroke-linejoin="round"/>
<path d="M3.33364 4.79994C3.33364 4.41096 3.48816 4.03791 3.76322 3.76285C4.03827 3.4878 4.41132 3.33327 4.80031 3.33327H5.46697C5.85424 3.33305 6.2257 3.17968 6.50031 2.90661L6.96697 2.43994C7.10327 2.30287 7.26532 2.1941 7.4438 2.11988C7.62228 2.04566 7.81368 2.00745 8.00697 2.00745C8.20027 2.00745 8.39166 2.04566 8.57015 2.11988C8.74863 2.1941 8.91068 2.30287 9.04697 2.43994L9.51364 2.90661C9.78825 3.17968 10.1597 3.33305 10.547 3.33327H11.2136C11.6026 3.33327 11.9757 3.4878 12.2507 3.76285C12.5258 4.03791 12.6803 4.41096 12.6803 4.79994V5.46661C12.6805 5.85387 12.8339 6.22534 13.107 6.49994L13.5736 6.96661C13.7107 7.10291 13.8195 7.26496 13.8937 7.44344C13.9679 7.62192 14.0061 7.81331 14.0061 8.00661C14.0061 8.19991 13.9679 8.3913 13.8937 8.56978C13.8195 8.74826 13.7107 8.91031 13.5736 9.04661L13.107 9.51328C12.8339 9.78788 12.6805 10.1593 12.6803 10.5466V11.2133C12.6803 11.6023 12.5258 11.9753 12.2507 12.2504C11.9757 12.5254 11.6026 12.6799 11.2136 12.6799H10.547C10.1597 12.6802 9.78825 12.8335 9.51364 13.1066L9.04697 13.5733C8.91068 13.7103 8.74863 13.8191 8.57015 13.8933C8.39166 13.9676 8.20027 14.0058 8.00697 14.0058C7.81368 14.0058 7.62228 13.9676 7.4438 13.8933C7.26532 13.8191 7.10327 13.7103 6.96697 13.5733L6.50031 13.1066C6.2257 12.8335 5.85424 12.6802 5.46697 12.6799H4.80031C4.41132 12.6799 4.03827 12.5254 3.76322 12.2504C3.48816 11.9753 3.33364 11.6023 3.33364 11.2133V10.5466C3.33342 10.1593 3.18004 9.78788 2.90697 9.51328L2.44031 9.04661C2.30324 8.91031 2.19447 8.74826 2.12025 8.56978C2.04602 8.3913 2.00781 8.19991 2.00781 8.00661C2.00781 7.81331 2.04602 7.62192 2.12025 7.44344C2.19447 7.26496 2.30324 7.10291 2.44031 6.96661L2.90697 6.49994C3.18004 6.22534 3.33342 5.85387 3.33364 5.46661V4.79994" stroke="white" stroke-width="1.3" stroke-linecap="round" stroke-linejoin="round"/>
</svg>
