<svg width="16" height="16" viewBox="0 0 16 16" fill="none" xmlns="http://www.w3.org/2000/svg">
<path d="M4.66634 12.6667C5.40272 12.6667 5.99967 12.0697 5.99967 11.3333C5.99967 10.597 5.40272 10 4.66634 10C3.92996 10 3.33301 10.597 3.33301 11.3333C3.33301 12.0697 3.92996 12.6667 4.66634 12.6667Z" stroke="white" stroke-width="1.3" stroke-linecap="round" stroke-linejoin="round"/>
<path d="M11.3333 12.6667C12.0697 12.6667 12.6667 12.0697 12.6667 11.3333C12.6667 10.597 12.0697 10 11.3333 10C10.597 10 10 10.597 10 11.3333C10 12.0697 10.597 12.6667 11.3333 12.6667Z" stroke="white" stroke-width="1.3" stroke-linecap="round" stroke-linejoin="round"/>
<path d="M3.33301 11.3334H1.99967V8.66671M1.33301 3.33337H8.66634V11.3334M5.99967 11.3334H9.99967M12.6663 11.3334H13.9997V7.33337M13.9997 7.33337H8.66634M13.9997 7.33337L11.9997 4.00004H8.66634" stroke="white" stroke-width="1.3" stroke-linecap="round" stroke-linejoin="round"/>
<path d="M2 6H4.66667" stroke="white" stroke-width="1.3" stroke-linecap="round" stroke-linejoin="round"/>
</svg>
