<svg id="ic_uzcard_blue_copy" data-name="ic_uzcard_blue copy" xmlns="http://www.w3.org/2000/svg" xmlns:xlink="http://www.w3.org/1999/xlink" width="44" height="28" viewBox="0 0 44 28">
  <defs>
    <clipPath id="clip-path">
      <rect id="Mask" width="44" height="28" rx="4" fill="#fff" stroke="#f4f4f4" stroke-miterlimit="10" stroke-width="1"/>
    </clipPath>
  </defs>
  <g id="Mask-2" data-name="Mask" fill="#fff" stroke="#f4f4f4" stroke-miterlimit="10" stroke-width="1">
    <rect width="44" height="28" rx="4" stroke="none"/>
    <rect x="0.5" y="0.5" width="43" height="27" rx="3.5" fill="none"/>
  </g>
  <g id="ic_uzcard_blue_copy-2" data-name="ic_uzcard_blue copy" clip-path="url(#clip-path)">
    <g id="payme" transform="translate(12 4)">
      <path id="path4" d="M0,5.148V0H5.271V5.148Z" transform="translate(7.323 7.206)" fill="none"/>
      <g id="g6">
        <path id="path8" d="M18.223,3.669a1.432,1.432,0,0,1,.011,1.514,35,35,0,0,1-2.366,2.641,2.579,2.579,0,0,1-1.645.933H1.783C.1,8.757,0,8.189,0,6.9V1.692C0,.379.388,0,1.537,0H14.222a2.45,2.45,0,0,1,1.73.918C16.468,1.441,18.008,3.362,18.223,3.669Z" transform="translate(0.089 10.79)" fill="#3cc"/>
        <g id="g10" transform="translate(1.308 12.3)">
          <g id="g12">
            <path id="path14" d="M1.586.368V.333C1.586.166,1.572,0,1.3,0H.257C.015,0,0,.133,0,.34V1.718A4.353,4.353,0,0,1,1.586.368Z" transform="translate(0.015 0.137)" fill="#fff"/>
            <path id="path16" d="M8.562,5.475V5.4h0V2.085Q8.563,0,6.723,0a1.835,1.835,0,0,0-.964.263A3.491,3.491,0,0,0,4.918,1a1.463,1.463,0,0,0-.6-.755A1.974,1.974,0,0,0,3.283,0,2.407,2.407,0,0,0,1.817.5C1.726.594,0,1.948,0,3.339V5.461c0,.067-.033.324.255.324H1.338c.336,0,.3-.22.3-.31V2.042C1.825,1.8,2.2,1.2,2.8,1.2a.555.555,0,0,1,.5.236,1.506,1.506,0,0,1,.154.79V4.91h0v.551c0,.067-.033.324.255.324H4.784c.337,0,.3-.22.3-.31V5.4h0V2.042c.2-.242.586-.838,1.162-.838a.572.572,0,0,1,.513.236,1.484,1.484,0,0,1,.157.79V4.91h0v.551c0,.067-.033.324.255.324H8.257c.337,0,.3-.22.3-.31Z" transform="translate(0.014 0.008)" fill="#fff"/>
          </g>
          <g id="g18" transform="translate(9.298 0.048)">
            <path id="path20" d="M0,2.873A2.7,2.7,0,0,1,2.7,0,2.609,2.609,0,0,1,5.342,2.8c.008.22-.057.416-.333.416H1.5c.022.926.469,1.426,1.26,1.426a1.093,1.093,0,0,0,1.017-.614A.39.39,0,0,1,4.1,3.861h.9a.183.183,0,0,1,.187.212A2.478,2.478,0,0,1,2.748,5.683,2.622,2.622,0,0,1,0,2.873Z" transform="translate(0.043 0.012)" fill="#fff"/>
          </g>
        </g>
        <path id="path22" d="M14.333,11.394c-.088-.02-.247-.041-.247-.373v-.868c0-.194.222-.217.341-.2a2.679,2.679,0,0,0,.293.021c1.42.138,2.887-1.249,3.2-1.562l-.164.455q-.217.575-.454,1.051a3.787,3.787,0,0,1-.539.822,2.226,2.226,0,0,1-.7.539,2.086,2.086,0,0,1-.931.194A3.7,3.7,0,0,1,14.333,11.394Zm1.348-1.953a1.509,1.509,0,0,0,.219-.556,2.126,2.126,0,0,0-.182-.583c-.541-1.479-1.96-5.359-2-5.45-.046-.113-.046-.4.32-.4h1.037a.522.522,0,0,1,.5.416c.09.252,1.234,3.5,1.234,3.5S18.013,3.05,18.1,2.8a.455.455,0,0,1,.472-.348H19.7c.29,0,.29.152.233.341-.036.117-.86,2.408-1.485,4.141a5.593,5.593,0,0,1-2.914,2.709A1.368,1.368,0,0,0,15.682,9.441ZM8.335,8.888a2.007,2.007,0,0,1-.71-.353A1.639,1.639,0,0,1,7.16,7.95a1.873,1.873,0,0,1-.167-.814,2.075,2.075,0,0,1,.992-1.831,5.888,5.888,0,0,1,2.8-.442c.429,0,.54-.236.54-.59a.986.986,0,0,0-.31-.682,1.3,1.3,0,0,0-.846-.225,1.471,1.471,0,0,0-.907.233.737.737,0,0,0-.248.338c-.133.247-.122.336-.4.336H7.569a.27.27,0,0,1-.254-.354Q7.67,2.3,10.235,2.3q.387,0,.7.023a3.835,3.835,0,0,1,.57.082,3.365,3.365,0,0,1,.485.147,2.618,2.618,0,0,1,.442.23,1.741,1.741,0,0,1,.349.3,1.5,1.5,0,0,1,.247.4,2.193,2.193,0,0,1,.148.536,4.557,4.557,0,0,1,.047.7V8.472c0,.217-.055.393-.3.393H11.7c-.237,0-.3-.176-.3-.374v-.2a4.511,4.511,0,0,1-.958.544A3.908,3.908,0,0,1,9.234,9,3.3,3.3,0,0,1,8.335,8.888ZM.326,8.865A.322.322,0,0,1,0,8.5V6.25a5.226,5.226,0,0,0,1.885,1.2V8.5s.042.366-.3.366ZM0,5.149V.49A.5.5,0,0,1,.532,0H3.414A9.622,9.622,0,0,1,4.4.047,3.921,3.921,0,0,1,5.24.221a2.638,2.638,0,0,1,.69.346,2.046,2.046,0,0,1,.532.566,2.6,2.6,0,0,1,.314.737,3.45,3.45,0,0,1,.1.83,2.624,2.624,0,0,1-.927,2.187,4.237,4.237,0,0,1-2.687.737H2.407a.54.54,0,0,0-.521.6v.924A4.4,4.4,0,0,1,0,5.149Z" transform="translate(0.011 0.012)" fill="#333"/>
      </g>
    </g>
  </g>
</svg>
