<?xml version="1.0" encoding="utf-8"?>
<!-- Generator: Adobe Illustrator 22.0.1, SVG Export Plug-In . SVG Version: 6.00 Build 0)  -->
<svg version="1.1"
	 id="svg11" xmlns:cc="http://creativecommons.org/ns#" xmlns:dc="http://purl.org/dc/elements/1.1/" xmlns:rdf="http://www.w3.org/1999/02/22-rdf-syntax-ns#" xmlns:svg="http://www.w3.org/2000/svg"
	 xmlns="http://www.w3.org/2000/svg" xmlns:xlink="http://www.w3.org/1999/xlink" x="0px" y="0px" viewBox="0 0 200 200"
	 style="enable-background:new 0 0 200 200;" xml:space="preserve">
<style type="text/css">
	.st0{fill:#003878;}
	.st1{fill:#F07C00;}
	.st2{display:none;}
	.st3{display:inline;fill:#003878;}
	.st4{display:inline;}
	.st5{fill:none;}
	.st6{display:none;fill:#003878;}
	.st7{display:none;fill:none;stroke:#000000;stroke-width:0.5;stroke-miterlimit:10;}
	.st8{display:none;fill:none;stroke:#000000;stroke-width:0.25;stroke-miterlimit:10;}
	.st9{display:none;fill:#0F71D3;}
</style>
<g id="Layer1000">
	<path id="path2" class="st0" d="M51.3,139.1c-11-11.6-16.5-29.8-16.5-53.2V8c0-1.8,1.5-3.3,3.3-3.3h38.5c1.8,0,3.3,1.5,3.3,3.3
		v80.2c0,7.6,1.1,16.3,5.7,22.6c7.2,9.8,22.8,9.8,30,0c4.6-6.3,5.7-15,5.7-22.6v-14h45.2v11.6c0,23.4-5.5,41.6-16.5,53.2
		C128,162.4,73.4,162.4,51.3,139.1L51.3,139.1z"/>
	<path id="path4" class="st0" d="M121.4,65.5V8.3c0-1.9,1.6-3.5,3.5-3.5h6.3c0,19.6,15.8,35.4,35.4,35.4l0,0v25.4H121.4z"/>
	<path id="path6" class="st1" d="M140,4.8h23.1c1.9,0,3.5,1.6,3.5,3.5v23.1C151.9,31.3,140,19.4,140,4.8L140,4.8z"/>
	<g id="NADPIS">
		<path id="path8_2_" class="st0" d="M179.4,188.8h-3v-10.5h3c3.4,0,5.3,2.3,5.3,5.3C184.6,186.4,182.6,188.8,179.4,188.8
			L179.4,188.8z M179.4,192c5.3,0,8.9-3.3,8.9-8.4s-3.6-8.4-8.9-8.4h-6.6V192H179.4z M157.4,182.9h-3.7v-4.5h3.7
			c1.4,0,2.5,0.9,2.5,2.3C159.9,182,158.8,182.9,157.4,182.9L157.4,182.9z M166,196.3l-6.2-10.6c1.8-0.4,3.7-2,3.7-5
			c0-3.1-2.1-5.4-5.6-5.4h-7.8V192h3.6v-6h2.6l5.7,10.2H166z M136.8,186h-5.2l2.6-7.2L136.8,186z M142.8,192l-6.5-16.8h-4.5
			l-6.4,16.8h4.1l1.1-2.8h7.2l1,2.8H142.8z M111.1,192.3c3.7,0,5.8-2,7-4.1l-3.1-1.5c-0.7,1.4-2.2,2.4-3.9,2.4c-3,0-5.3-2.3-5.3-5.5
			s2.2-5.5,5.3-5.5c1.7,0,3.2,1.1,3.9,2.4l3.1-1.5c-1.2-2.1-3.3-4.1-7-4.1c-5,0-8.9,3.5-8.9,8.7
			C102.3,188.8,106.1,192.3,111.1,192.3L111.1,192.3z M93.6,192v-3.1h-8.1l7.9-10.8v-2.9H80.8v3.1h7.9l-7.9,10.7v2.9L93.6,192
			L93.6,192z M197,173.8L197,173.8c0,1.8-1.4,3.2-3.1,3.2s-3.1-1.4-3.1-3.1s1.4-3.1,3.1-3.1h3.1V173.8z M64.1,192.3
			c5.1,0,7.6-2.8,7.6-7v-10.1h-3.6v10c0,2.3-1.3,3.9-3.9,3.9s-3.9-1.6-3.9-3.9v-10h-3.6v10.1C56.5,189.4,59,192.3,64.1,192.3
			L64.1,192.3z"/>
		<path id="path8_8_" class="st0" d="M5.4,175.3V192H9v-11.4l3.9,3.6l4-3.6V192h3.6v-16.8h-3.6l-4,3.6L9,175.3H5.4z"/>
		<path id="path8_6_" class="st0" d="M36.1,181.2l-3.2-5.9h-4.1l5.7,10.4L36.1,181.2z"/>
		<path id="path8_5_" class="st0" d="M42.3,175.3h-3.9L30.9,192H35L42.3,175.3z"/>
	</g>
</g>
<rect x="25" y="180.6" class="st9" width="4.1" height="0.6"/>
<rect x="48.3" y="169.3" class="st0" width="0.6" height="29.1"/>
</svg>
