<svg id="ic_basket" xmlns="http://www.w3.org/2000/svg" width="24" height="24" viewBox="0 0 24 24">
  <rect id="Rectangle" width="24" height="24" fill="rgba(255,255,255,0.01)"/>
  <path id="Shop_basket" d="M16.38,18.293H3.62a2.594,2.594,0,0,1-2.562-2.241L.023,8.294A2.586,2.586,0,0,1,2.587,5.363H17.412a2.587,2.587,0,0,1,2.565,2.931l-1.035,7.757A2.594,2.594,0,0,1,16.38,18.293ZM13.966,4.505a.859.859,0,0,1-.773-.478L11.814,1.269A.862.862,0,0,1,12.572,0l.064,0a.86.86,0,0,1,.721.5l1.38,2.759a.861.861,0,0,1-.771,1.245Zm-7.92-.023a.861.861,0,0,1-.782-1.221L6.643.5A.862.862,0,0,1,7.364,0l.064,0a.861.861,0,0,1,.758,1.269L6.807,4.028A.862.862,0,0,1,6.046,4.482Z" transform="translate(2 3)" fill="#fff"/>
</svg>
