<svg id="ic_menu_5" xmlns="http://www.w3.org/2000/svg" width="24" height="24" viewBox="0 0 24 24">
  <rect id="Rectangle" width="24" height="24" fill="none"/>
  <path id="Exit_" d="M13.54,20H2.921A2.924,2.924,0,0,1,0,17.079V2.92A2.924,2.924,0,0,1,2.921,0H13.54a2.924,2.924,0,0,1,2.92,2.92v.885a1.15,1.15,0,1,1-2.3,0V2.92a.62.62,0,0,0-.62-.619H2.921A.62.62,0,0,0,2.3,2.92V17.079a.62.62,0,0,0,.619.62H13.54a.621.621,0,0,0,.62-.62v-.885a1.15,1.15,0,0,1,2.3,0v.885A2.924,2.924,0,0,1,13.54,20Zm1.355-5.944a.443.443,0,0,1-.443-.445V11.168H8.85a.885.885,0,0,1,0-1.77h5.629V6.9a.442.442,0,0,1,.752-.319l3.354,3.274a.444.444,0,0,1-.018.619L15.213,13.92A.445.445,0,0,1,14.894,14.056Z" transform="translate(3 2)" fill="#ff0006"/>
</svg>
