<?xml version="1.0" encoding="UTF-8"?>
<svg width="20px" height="19px" viewBox="0 0 20 19" version="1.1" xmlns="http://www.w3.org/2000/svg" xmlns:xlink="http://www.w3.org/1999/xlink">
    <title>ic_home</title>
    <g id="iOS" stroke="none" stroke-width="1" fill="none" fill-rule="evenodd">
        <g id="ic_home" transform="translate(-2.000000, -3.000000)">
            <rect id="Rectangle-Copy-2" x="0" y="0" width="24" height="24"></rect>
            <path
                d="M3.69423143,11.845425 L2.97452783,11.845425 C2.56421001,11.8462285 2.19752711,11.5894328 2.05800396,11.2035641 C1.91848082,10.8176954 2.03613536,10.3857721 2.35208147,10.1239718 L10.1326609,3.67581654 C11.2144952,2.77472782 12.7855048,2.77472782 13.8673391,3.67581654 L21.6479185,10.1239718 C21.9638646,10.3857721 22.0815192,10.8176954 21.941996,11.2035641 C21.8024729,11.5894328 21.43579,11.8462285 21.0254722,11.845425 L20.3057686,11.845425 C20.0372001,11.845425 19.8194824,12.0631427 19.8194824,12.3317112 L19.8194824,18.653432 C19.8194824,20.2648428 18.5131758,21.5711493 16.9017651,21.5711493 L15.9291926,21.5711493 C14.8549188,21.5711493 13.9840478,20.7002783 13.9840478,19.6260044 L13.9840478,16.7082871 C13.9840478,15.6340133 13.1131767,14.7631423 12.0389029,14.7631423 L12.0389029,14.7631423 C10.9646291,14.7631423 10.093758,15.6340133 10.093758,16.7082871 L10.093758,19.6260044 C10.093758,20.7002783 9.22288701,21.5711493 8.14861317,21.5711493 L7.17604074,21.5711493 C5.56462997,21.5711493 4.25832344,20.2648428 4.25832344,18.653432 L4.25832344,12.3317112 C4.26017627,12.1880536 4.19840993,12.0509293 4.0895932,11.9571218 C3.98077648,11.8633143 3.83604812,11.8224259 3.69423143,11.845425 Z"
                id="Home" fill="#2C2C2C"></path>
        </g>
    </g>
</svg>