<?xml version="1.0" encoding="UTF-8"?>
<svg width="18px" height="20px" viewBox="0 0 18 20" version="1.1" xmlns="http://www.w3.org/2000/svg" xmlns:xlink="http://www.w3.org/1999/xlink">
    <title>ic_search</title>
    <g id="iOS" stroke="none" stroke-width="1" fill="none" fill-rule="evenodd">
        <g id="ic_search" transform="translate(-3.000000, -2.000000)">
            <rect id="Rectangle-Copy-2" x="0" y="0" width="24" height="24"></rect>
            <path d="M17.6073536,5.07033209 C14.9244209,1.72628286 10.1128046,1.01183576 6.57100077,3.43161241 C3.02919688,5.85138907 1.95454419,10.5873621 4.10608138,14.2944632 C6.25761857,18.0015642 10.907999,19.4265742 14.7726094,17.5629935 L17.7349626,21.2935041 C18.1370515,21.8124771 18.7878613,22.075218 19.4383131,21.9811702 C20.088765,21.8871223 20.6381466,21.4508476 20.8761978,20.8393177 C21.114249,20.2277878 21.0041113,19.5356886 20.5879367,19.0279013 L17.6255834,15.2973906 C20.0149059,12.3031594 20.0073353,8.05605648 17.6073536,5.07033209 L17.6073536,5.07033209 Z M14.0160699,13.7232971 C12.5731743,14.8729618 10.5780023,15.0401066 8.96333256,14.1465881 C7.34866279,13.2530697 6.43350901,11.4754225 6.64572194,9.64472827 C6.85793487,7.81403406 8.15558714,6.29198709 9.93200317,5.79017148 C11.7084192,5.28835586 13.6126286,5.9059164 14.7543795,7.35413253 C16.3140121,9.30707924 16.0048071,12.149981 14.0616446,13.7232971 L14.0160699,13.7232971 Z" id="Serch" fill="#2C2C2C"></path>
        </g>
    </g>
</svg>