<?xml version="1.0" encoding="UTF-8"?>
<svg width="15px" height="20px" viewBox="0 0 15 20" version="1.1" xmlns="http://www.w3.org/2000/svg" xmlns:xlink="http://www.w3.org/1999/xlink">
    <title>ic_profile</title>
    <g id="iOS" stroke="none" stroke-width="1" fill="none" fill-rule="evenodd">
        <g id="ic_profile" transform="translate(-5.000000, -2.000000)">
            <rect id="Rectangle-Copy-2" x="0" y="0" width="24" height="24"></rect>
            <path d="M5,19.5 L5,15.3333333 C5.04562679,14.4245762 5.59112402,13.6159568 6.41666667,13.2333333 L6.41666667,13.2333333 C10.3179345,11.6661244 14.6737321,11.6661244 18.575,13.2333333 L18.575,13.2333333 C19.4037861,13.6136049 19.9528101,14.4226929 20,15.3333333 L20,19.5 C20,20.8807119 18.8807119,22 17.5,22 L7.5,22 C6.11928813,22 5,20.8807119 5,19.5 Z M12.5,2 C10.1988135,2 8.33333333,3.86548021 8.33333333,6.16666667 C8.33333333,8.46785312 10.1988135,10.3333333 12.5,10.3333333 C14.8011865,10.3333333 16.6666667,8.46785312 16.6666667,6.16666667 C16.6666667,3.86548021 14.8011865,2 12.5,2 L12.5,2 Z" id="Account" fill="#2C2C2C"></path>
        </g>
    </g>
</svg>