<?xml version="1.0" encoding="UTF-8"?>
<svg width="20px" height="17px" viewBox="0 0 20 17" version="1.1" xmlns="http://www.w3.org/2000/svg" xmlns:xlink="http://www.w3.org/1999/xlink">
    <title>ic_shopping</title>
    <g id="iOS" stroke="none" stroke-width="1" fill="none" fill-rule="evenodd">
        <g id="ic_shopping" transform="translate(-2.000000, -4.000000)">
            <rect id="Rectangle-Copy-2" x="0" y="0" width="24" height="24"></rect>
            <path d="M21.9863705,4.99110253 L20.5706693,12.619234 C20.3500463,13.8022359 19.3174098,14.6598493 18.1140112,14.6595093 L9.2117487,14.6595093 C8.00835017,14.6598493 6.97571368,13.8022359 6.75509066,12.619234 L5.5975467,6.34851019 C5.52429054,5.94787296 5.17200667,5.65900019 4.76478126,5.66564253 L2.83276544,5.66564253 C2.37284179,5.66564253 2,5.29280075 2,4.83287709 C2,4.37295344 2.37284179,4.00011165 2.83276544,4.00011165 L21.1536051,4.00011165 C21.403075,3.99603031 21.6412312,4.10401979 21.8025405,4.29436475 C21.9638498,4.48470971 22.0313145,4.73735293 21.9863705,4.98277487 L21.9863705,4.99110253 Z M10.3276544,15.50893 C8.94788344,15.50893 7.82935807,16.6274554 7.82935807,18.0072263 C7.82935807,19.3869973 8.94788344,20.5055227 10.3276544,20.5055227 C11.7074253,20.5055227 12.8259507,19.3869973 12.8259507,18.0072263 C12.8259507,17.344637 12.5627381,16.7091855 12.0942167,16.2406641 C11.6256952,15.7721426 10.9902438,15.50893 10.3276544,15.50893 L10.3276544,15.50893 Z M16.9897779,15.50893 C15.6100069,15.50893 14.4914816,16.6274554 14.4914816,18.0072263 C14.4914816,19.3869973 15.6100069,20.5055227 16.9897779,20.5055227 C18.3695489,20.5055227 19.4880742,19.3869973 19.4880742,18.0072263 C19.4880742,17.344637 19.2248616,16.7091855 18.7563402,16.2406641 C18.2878187,15.7721426 17.6523673,15.50893 16.9897779,15.50893 L16.9897779,15.50893 Z" id="Cart" fill="#2C2C2C"></path>
        </g>
    </g>
</svg>