<?xml version="1.0" encoding="UTF-8"?>
<svg width="20px" height="18px" viewBox="0 0 20 18" version="1.1" xmlns="http://www.w3.org/2000/svg" xmlns:xlink="http://www.w3.org/1999/xlink">
    <title>ic_favorites</title>
    <g id="iOS" stroke="none" stroke-width="1" fill="none" fill-rule="evenodd">
        <g id="ic_favorites" transform="translate(-2.000000, -3.000000)">
            <rect id="Rectangle-Copy-2" x="0" y="0" width="24" height="24"></rect>
            <path d="M12.8213616,3.61226172 C13.808776,3.1519624 14.6721266,3 15.9853835,3 C19.4299338,3.01360151 22,5.80266375 22,9.34989678 C22,12.0348917 20.4543291,14.5852185 17.6103129,17.0213183 C16.137433,18.2829435 14.2612904,19.5285331 12.9086273,20.1956352 L12,20.6437491 L11.0913727,20.1956352 C9.73870959,19.5285331 7.86256702,18.2829435 6.38968706,17.0213183 C3.54567088,14.5852185 2,12.0348917 2,9.34989678 C2,5.7670076 4.54812405,3 8.02272727,3 C9.28993375,3 10.1960844,3.16606184 11.2013363,3.63958445 C11.4769488,3.76941139 11.7399673,3.91833157 11.98941,4.08608493 C12.2521856,3.90620617 12.5298551,3.74815222 12.8213616,3.61226172 Z" id="icon" fill="#2C2C2C"></path>
        </g>
    </g>
</svg>