<?xml version="1.0" encoding="UTF-8"?>
<svg width="24px" height="24px" viewBox="0 0 24 24" version="1.1" xmlns="http://www.w3.org/2000/svg" xmlns:xlink="http://www.w3.org/1999/xlink">
    <title>ic_notifications</title>
    <g id="iOS" stroke="none" stroke-width="1" fill="none" fill-rule="evenodd">
        <g id="ic_notifications">
            <rect id="Rectangle" x="0" y="0" width="24" height="24"></rect>
            <path
                d="M19.8370633,18.0298979 C19.5209445,18.4352133 19.0353803,18.671849 18.5213656,18.6710923 L5.66416807,18.6710923 C5.15231012,18.6706967 4.66906424,18.4349514 4.35368954,18.0317919 C4.03831484,17.6286325 3.92584508,17.1028445 4.04869118,16.6059466 L4.59828641,14.4075657 L4.59828641,9.51117178 C4.59366462,7.43383796 5.45146883,5.44777285 6.96696489,4.02699529 C8.48246094,2.60621774 10.5196817,1.87819694 12.5923989,2.01669135 C16.5850991,2.34875457 19.640397,5.71321947 19.5872473,9.7193518 L19.5872473,14.3825841 L20.1368425,16.580965 C20.2687242,17.0842544 20.1578266,17.6202592 19.8370633,18.0298979 Z M13.6499533,19.5038124 L10.768742,19.5038124 C10.4786457,19.5017864 10.2084038,19.650883 10.0554141,19.8973665 C9.90242434,20.1438499 9.88874035,20.4521894 10.0192939,20.7112564 C10.459267,21.5064603 11.2963796,22 12.2051841,22 C13.1139885,22 13.9511011,21.5064603 14.3910742,20.7112564 C14.5209529,20.4535144 14.508109,20.1468989 14.35713,19.9009217 C14.2061509,19.6549445 13.9385684,19.5046858 13.6499533,19.5038124 Z"
                id="Bell" fill="#2C2C2C"></path>
        </g>
    </g>
</svg>