<?xml version="1.0" encoding="UTF-8"?>
<svg width="24px" height="24px" viewBox="0 0 24 24" version="1.1" xmlns="http://www.w3.org/2000/svg" xmlns:xlink="http://www.w3.org/1999/xlink">
    <title>ic_menu_4</title>
    <g id="iOS" stroke="none" stroke-width="1" fill="none" fill-rule="evenodd">
        <g id="ic_menu_4">
            <rect id="Rectangle" x="0" y="0" width="24" height="24"></rect>
            <path d="M21.9998749,14.9115802 L21.9998749,17.4105131 C22.0075506,18.2494728 21.3901427,18.9632391 20.5588236,19.0764683 C20.4319758,20.9487265 18.8785541,22.4039225 17.0020091,22.4083789 L12.8371209,22.4083789 C12.2390678,22.4083789 11.75425,21.923561 11.75425,21.3255079 L11.75425,19.909446 C11.75425,19.3113929 12.2390678,18.826575 12.8371209,18.826575 C13.435174,18.826575 13.9199918,19.3113929 13.9199918,19.909446 L13.9199918,20.242637 L17.0020091,20.242637 C17.6946052,20.2392044 18.2830883,19.7352938 18.3930817,19.051479 C17.5816499,18.9158114 16.9907458,18.2081418 17.0020091,17.3855237 L17.0020091,14.8865908 C17.0020091,13.5064683 18.1208194,12.3876579 19.500942,12.3876579 L19.500942,12.3876579 C20.1680527,12.3876246 20.8074826,12.6543318 21.2768485,13.1283913 C21.7462143,13.6024508 22.006546,14.2445028 21.9998749,14.9115802 Z M12.2290472,5.16574185 C15.0831082,5.20477069 17.5953726,7.05714697 18.4763795,9.77210816 C18.5983931,10.1396371 18.9072127,10.4141543 19.2865089,10.4922519 C19.6658051,10.5703494 20.0579538,10.4401624 20.3152363,10.150731 C20.5725189,9.86129964 20.6558479,9.4565954 20.5338342,9.0890665 C19.3664365,5.47142104 16.0053691,3.01448077 12.2040579,3 C7.31495192,3.06401437 3.39572438,7.0651251 3.43280343,11.9545096 L3.43280343,12.4376366 C2.60479657,12.5546692 1.99185195,13.2673955 2.0000819,14.1035919 L2.0000819,16.6025248 C2.0000819,17.9826473 3.11889227,19.1014577 4.4990148,19.1014577 L4.4990148,19.1014577 C5.87913733,19.1014577 6.9979477,17.9826473 6.9979477,16.6025248 L6.9979477,14.1035919 C7.00856986,13.2782896 6.41329369,12.5696275 5.59854527,12.4376366 L5.59854527,11.9961584 C5.57183718,10.2110722 6.25544766,8.48850895 7.49895002,7.20751405 C8.74245239,5.92651914 10.4439552,5.19205621 12.2290472,5.16574185 Z" id="Support" fill="#2C2C2C"></path>
        </g>
    </g>
</svg>