<?xml version="1.0" encoding="UTF-8"?>
<svg width="24px" height="24px" viewBox="0 0 24 24" version="1.1" xmlns="http://www.w3.org/2000/svg" xmlns:xlink="http://www.w3.org/1999/xlink">
    <title>ic_menu_3</title>
    <g id="iOS" stroke="none" stroke-width="1" fill="none" fill-rule="evenodd">
        <g id="ic_menu_3">
            <rect id="Rectangle" x="0" y="0" width="24" height="24"></rect>
            <path d="M2,8.9 L2,18.0666667 C2,19.4473785 3.11928813,20.5666667 4.5,20.5666667 L19.5,20.5666667 C20.8807119,20.5666667 22,19.4473785 22,18.0666667 L22,8.9 C22,7.51928813 20.8807119,6.4 19.5,6.4 L4.5,6.4 C3.11928813,6.4 2,7.51928813 2,8.9 Z M18.1583333,12.1666667 L12.325,14.6666667 C12.1148562,14.757021 11.8768105,14.757021 11.6666667,14.6666667 L5.83333333,12.1666667 C5.40991503,11.9848729 5.2140396,11.4942516 5.39583333,11.0708333 C5.57762706,10.647415 6.06824836,10.4515396 6.49166667,10.6333333 L11.6666667,12.85 C11.8768105,12.9403543 12.1148562,12.9403543 12.325,12.85 L17.5,10.6333333 C17.9234183,10.4515396 18.4140396,10.647415 18.5958333,11.0708333 C18.7776271,11.4942516 18.5817516,11.9848729 18.1583333,12.1666667 L18.1583333,12.1666667 Z M7.83333333,3.83333333 C7.83333333,3.37309604 8.20642938,3 8.66666667,3 L15.3333333,3 C15.7935706,3 16.1666667,3.37309604 16.1666667,3.83333333 C16.1666667,4.29357062 15.7935706,4.66666667 15.3333333,4.66666667 L8.66666667,4.66666667 C8.4427347,4.66671146 8.22820766,4.57662993 8.07143928,4.41672619 C7.91467091,4.25682245 7.82885469,4.04055385 7.83333333,3.81666667 L7.83333333,3.83333333 Z" id="Briefcase" fill="#2C2C2C"></path>
        </g>
    </g>
</svg>