<?xml version="1.0" encoding="UTF-8"?>
<svg width="24px" height="24px" viewBox="0 0 24 24" version="1.1" xmlns="http://www.w3.org/2000/svg" xmlns:xlink="http://www.w3.org/1999/xlink">
    <title>ic_menu_7</title>
    <g id="iOS" stroke="none" stroke-width="1" fill="none" fill-rule="evenodd">
        <g id="ic_menu_7">
            <rect id="Rectangle" x="0" y="0" width="24" height="24"></rect>
            <path d="M4.5,5 L17.8333333,5 C19.2140452,5 20.3333333,6.11928813 20.3333333,7.5 L20.3333333,7.5 C20.3333333,8.42047458 19.5871412,9.16666667 18.6666667,9.16666667 L16.1666667,9.16666667 C14.7859548,9.16666667 13.6666667,10.2859548 13.6666667,11.6666667 L13.6666667,13.3333333 C13.6666667,14.7140452 14.7859548,15.8333333 16.1666667,15.8333333 L18.6666667,15.8333333 C19.5871412,15.8333333 20.3333333,16.5795254 20.3333333,17.5 L20.3333333,17.5 C20.3333333,18.8807119 19.2140452,20 17.8333333,20 L4.5,20 C3.11928813,20 2,18.8807119 2,17.5 L2,7.5 C2,6.11928813 3.11928813,5 4.5,5 Z M22,11.6666667 L22,13.3333333 C22,14.2538079 21.2538079,15 20.3333333,15 L16.1666667,15 C15.2461921,15 14.5,14.2538079 14.5,13.3333333 L14.5,11.6666667 C14.5,10.7461921 15.2461921,10 16.1666667,10 L20.3333333,10 C21.2538079,10 22,10.7461921 22,11.6666667 Z M21.1666667,12.5 C21.1666667,12.0397627 20.7935706,11.6666667 20.3333333,11.6666667 C19.873096,11.6666667 19.5,12.0397627 19.5,12.5 C19.5,12.9602373 19.873096,13.3333333 20.3333333,13.3333333 C20.7935706,13.3333333 21.1666667,12.9602373 21.1666667,12.5 Z" id="Purse" fill="#2C2C2C"></path>
        </g>
    </g>
</svg>