<?xml version="1.0" encoding="UTF-8"?>
<svg width="24px" height="24px" viewBox="0 0 24 24" version="1.1" xmlns="http://www.w3.org/2000/svg" xmlns:xlink="http://www.w3.org/1999/xlink">
    <title>ic_menu_history</title>
    <g id="iOS" stroke="none" stroke-width="1" fill="none" fill-rule="evenodd">
        <g id="Profile" transform="translate(-16.000000, -377.000000)">
            <g id="Group-16" transform="translate(0.000000, 305.000000)">
                <g id="Group-3-Copy-4" transform="translate(0.000000, 56.000000)">
                    <g id="ic_menu_history" transform="translate(16.000000, 16.000000)">
                        <rect id="Rectangle" x="0" y="0" width="24" height="24"></rect>
                        <path d="M3,18.2442109 L3,3.95276318 C3,3.42656661 3.42656661,3 3.95276318,3 L5.60104349,3 C7.63603326,3.00056473 9.62524906,3.60396019 11.3176226,4.73402899 L11.3176226,4.73402899 C11.4766066,4.83872836 11.6826583,4.83872836 11.8416423,4.73402899 L11.8416423,4.73402899 C13.5340159,3.60396019 15.5232317,3.00056473 17.5582214,3 L19.1969741,3 C19.7231707,3 20.1497373,3.42656661 20.1497373,3.95276318 L20.1497373,18.2442109 C20.1497373,18.7704075 19.7231707,19.1969741 19.1969741,19.1969741 L16.8817596,19.1969741 C15.2882596,19.1959413 13.7301214,19.6666979 12.4037726,20.5498978 L11.8416423,20.9214755 C11.6826583,21.0261748 11.4766066,21.0261748 11.3176226,20.9214755 L10.7554923,20.5498978 C9.42914354,19.6666979 7.87100529,19.1959413 6.27750535,19.1969741 L3.95276318,19.1969741 C3.42656661,19.1969741 3,18.7704075 3,18.2442109 Z" id="Book" fill="#2C2C2C"></path>
                    </g>
                </g>
            </g>
        </g>
    </g>
</svg>