<?xml version="1.0" encoding="UTF-8"?>
<svg width="24px" height="24px" viewBox="0 0 24 24" version="1.1" xmlns="http://www.w3.org/2000/svg" xmlns:xlink="http://www.w3.org/1999/xlink">
    <title>ic_menu_6</title>
    <g id="iOS" stroke="none" stroke-width="1" fill="none" fill-rule="evenodd">
        <g id="ic_menu_6">
            <rect id="Rectangle" x="0" y="0" width="24" height="24"></rect>
            <path d="M20.6537099,14.5400042 L19.9928958,13.8626698 C19.6497844,13.5279966 19.4689366,13.0608066 19.4972852,12.5823424 C19.5391528,12.1262381 19.5391528,11.6672575 19.4972852,11.2111532 C19.4628254,10.7398507 19.6381457,10.2773676 19.9763754,9.94734616 L20.6454497,9.26175152 C21.1635354,8.73140648 21.2648531,7.9208647 20.893255,7.27930918 L20.4885064,6.57719419 C20.1204209,5.94117569 19.376473,5.62474539 18.6630074,5.8007376 L17.663526,6.0485429 C17.1988171,6.16216051 16.7076747,6.06875306 16.3171173,5.79247743 C16.146407,5.67132817 15.9674365,5.55843909 15.7802058,5.45381019 C15.5929751,5.34918129 15.4140047,5.25831935 15.2432943,5.18122437 C14.7892296,4.9804759 14.4495189,4.58616874 14.3181546,4.10740144 L14.0703493,3.21530239 C13.8678201,2.47646678 13.1839205,1.97380059 12.418314,2.00105645 L11.5922964,2.00105645 C10.8726019,2.01442983 10.2444073,2.49225875 10.0393832,3.18226168 L9.73375668,4.20652356 C9.60811457,4.64142075 9.30951751,5.00570917 8.90773904,5.21426508 C8.49966994,5.40728165 8.10985952,5.63674452 7.74305416,5.89985972 C7.35672262,6.17134642 6.87268572,6.26454607 6.41316576,6.15592519 L5.4549853,5.92464025 C4.72989919,5.75743373 3.98251466,6.09561678 3.62948631,6.75065789 L3.21647749,7.48581359 C2.8512486,8.12719086 2.95577041,8.93302034 3.47254296,9.45999575 L4.13335707,10.1373302 C4.47646849,10.4720034 4.65731624,10.9391934 4.62896766,11.4176576 C4.58710002,11.8737619 4.58710002,12.3327425 4.62896766,12.7888468 C4.66342749,13.2601493 4.48810713,13.7226324 4.14987742,14.0526538 L3.48080313,14.7382485 C2.96271746,15.2685935 2.86139974,16.0791353 3.23299784,16.7206908 L3.63774649,17.4228058 C4.00583199,18.0588243 4.74977984,18.3752546 5.46324547,18.1992624 L6.46272682,17.9514571 C6.92743572,17.8378395 7.41857815,17.9312469 7.80913557,18.2075226 C7.97984589,18.3286718 8.15881638,18.4415609 8.34604704,18.5461898 C8.53327771,18.6508187 8.71224819,18.7416806 8.88295851,18.8187756 C9.33702321,19.0195241 9.67673399,19.4138313 9.80809827,19.8925986 L10.0559036,20.7846976 C10.2584328,21.5235332 10.9423324,22.0261994 11.7079388,21.9989435 L12.5339565,21.9989435 C13.2536509,21.9855702 13.8818456,21.5077412 14.0868696,20.8177383 L14.3924962,19.7934764 C14.5181383,19.3585792 14.8167353,18.9942908 15.2185138,18.7857349 C15.6265829,18.5927184 16.0163933,18.3632555 16.3831987,18.1001403 C16.7695302,17.8286536 17.2535671,17.7354539 17.7130871,17.8440748 L18.6712676,18.0753598 C19.3963537,18.2425663 20.1437382,17.9043832 20.4967665,17.2493421 L20.9097754,16.5141864 C21.2750043,15.8728091 21.1704824,15.0669797 20.6537099,14.5400042 Z M12.0796468,15.2999405 C10.254859,15.2999405 8.77557621,13.8206577 8.77557621,11.9958699 C8.77557621,10.1710821 10.254859,8.69179935 12.0796468,8.69179935 C13.9044346,8.69179935 15.3837173,10.1710821 15.3837173,11.9958699 C15.3837173,13.8206577 13.9044346,15.2999405 12.0796468,15.2999405 Z" id="Settings" fill="#2C2C2C"></path>
        </g>
    </g>
</svg>