<svg xmlns="http://www.w3.org/2000/svg" width="23.595" height="19.99" viewBox="0 0 23.595 19.99">
  <g id="Group_14" data-name="Group 14" transform="translate(2547.094 1250.5)">
    <path id="Invite" d="M20.93,19.99H11.06a3.087,3.087,0,0,1-3.07-3.07v-3.2A3.234,3.234,0,0,1,9.92,10.87a16.212,16.212,0,0,1,12.15,0A3.235,3.235,0,0,1,24,13.72v3.2A3.087,3.087,0,0,1,20.93,19.99ZM16,8a4,4,0,1,1,4-4A4.005,4.005,0,0,1,16,8Z" transform="translate(-2547.5 -1250.5)" fill="#2c2c2c"/>
    <g id="Group_13" data-name="Group 13" transform="translate(12 -0.16)">
      <path id="Comment-path" d="M3.269,1.42.892.069A.516.516,0,0,0,.119.5L0,3.895a.278.278,0,0,0,.428.242l2.861-1.83a.516.516,0,0,0-.021-.887Z" transform="translate(-2559.094 -1241.148)" fill="#2c2c2c"/>
      <path id="Comment-path-2" data-name="Comment-path" d="M.78,7.436l1.17.67a1.547,1.547,0,0,0,2.109-.577L6.637,2.982A1.547,1.547,0,0,0,6.059.873L4.889.2A1.547,1.547,0,0,0,2.781.78L.2,5.327A1.547,1.547,0,0,0,.78,7.436Z" transform="translate(-2557.813 -1249.144)" fill="#2c2c2c"/>
    </g>
  </g>
</svg>
