<?xml version="1.0" encoding="UTF-8"?>
<svg width="24px" height="24px" viewBox="0 0 24 24" version="1.1" xmlns="http://www.w3.org/2000/svg" xmlns:xlink="http://www.w3.org/1999/xlink">
    <title>ic_menu_5</title>
    <g id="iOS" stroke="none" stroke-width="1" fill="none" fill-rule="evenodd">
        <g id="ic_menu_5">
            <rect id="Rectangle" x="0" y="0" width="24" height="24"></rect>
            <g id="store" transform="translate(2.000000, 3.000000)" fill="#000000" fill-rule="nonzero" stroke="#000000" stroke-width="0.5">
                <path d="M19.5454545,3.85064935 L17.4383117,0.487012987 C17.25,0.185064935 16.9155844,0 16.5584416,0 L3.44155844,0 C3.08441558,0 2.75,0.185064935 2.56168831,0.487012987 L0.454545455,3.85064935 C-0.633116883,5.58766234 0.331168831,8.00324675 2.36363636,8.27922078 C2.50974026,8.2987013 2.65909091,8.30844156 2.80844156,8.30844156 C3.76948052,8.30844156 4.62012987,7.88636364 5.20454545,7.23376623 C5.78896104,7.88636364 6.64285714,8.30844156 7.60064935,8.30844156 C8.56168831,8.30844156 9.41233766,7.88636364 9.99675325,7.23376623 C10.5811688,7.88636364 11.4350649,8.30844156 12.3928571,8.30844156 C13.3538961,8.30844156 14.2045455,7.88636364 14.788961,7.23376623 C15.3766234,7.88636364 16.2272727,8.30844156 17.1850649,8.30844156 C17.3376623,8.30844156 17.4837662,8.2987013 17.6298701,8.27922078 C19.6688312,8.00649351 20.6363636,5.59090909 19.5454545,3.85064935 L19.5454545,3.85064935 Z M17.1915584,9.35064935 C16.8668831,9.35064935 16.5454545,9.30194805 16.2337662,9.22727273 L16.2337662,12.4675325 L3.76623377,12.4675325 L3.76623377,9.22727273 C3.45454545,9.2987013 3.13311688,9.35064935 2.80844156,9.35064935 C2.61363636,9.35064935 2.41558442,9.33766234 2.22402597,9.31168831 C2.04220779,9.28571429 1.86363636,9.24350649 1.69155844,9.19480519 L1.69155844,15.5844156 C1.69155844,16.1590909 2.15584416,16.6233766 2.73051948,16.6233766 L17.275974,16.6233766 C17.8506494,16.6233766 18.3149351,16.1590909 18.3149351,15.5844156 L18.3149351,9.19480519 C18.1396104,9.24675325 17.9642857,9.28896104 17.7824675,9.31168831 C17.5844156,9.33766234 17.3896104,9.35064935 17.1915584,9.35064935 Z" id="Shape"></path>
            </g>
        </g>
    </g>
</svg>