<?xml version="1.0" encoding="UTF-8"?>
<svg width="24px" height="24px" viewBox="0 0 24 24" version="1.1" xmlns="http://www.w3.org/2000/svg" xmlns:xlink="http://www.w3.org/1999/xlink">
    <title>ic_settings_5</title>
    <g id="iOS" stroke="none" stroke-width="1" fill="none" fill-rule="evenodd">
        <g id="ic_settings_5">
            <rect id="Rectangle" x="0" y="0" width="24" height="24"></rect>
            <path d="M5.92035398,2 L16.539823,2 C18.15269,2 19.460177,3.30748701 19.460177,4.92035398 L19.460177,5.80530973 C19.460177,6.44068157 18.9451063,6.95575221 18.3097345,6.95575221 C17.6743627,6.95575221 17.159292,6.44068157 17.159292,5.80530973 L17.159292,4.92035398 C17.159292,4.57823069 16.8819463,4.30088496 16.539823,4.30088496 L5.92035398,4.30088496 C5.57823069,4.30088496 5.30088496,4.57823069 5.30088496,4.92035398 L5.30088496,19.079646 C5.30088496,19.4217693 5.57823069,19.699115 5.92035398,19.699115 L16.539823,19.699115 C16.7041164,19.699115 16.8616808,19.6338497 16.9778538,19.5176768 C17.0940267,19.4015038 17.159292,19.2439394 17.159292,19.079646 L17.159292,18.1946903 C17.159292,17.5593184 17.6743627,17.0442478 18.3097345,17.0442478 C18.9451063,17.0442478 19.460177,17.5593184 19.460177,18.1946903 L19.460177,19.079646 C19.460177,20.692513 18.15269,22 16.539823,22 L5.92035398,22 C4.30748701,22 3,20.692513 3,19.079646 L3,4.92035398 C3,3.30748701 4.30748701,2 5.92035398,2 Z M21.5840708,11.8584071 L18.2300885,8.5840708 C18.1025204,8.45902303 17.9122734,8.42294771 17.7477829,8.49261428 C17.5832924,8.56228085 17.4768268,8.72402268 17.4778761,8.90265487 L17.4778761,11.3982301 L11.8495575,11.3982301 C11.36081,11.3982301 10.9646018,11.7944383 10.9646018,12.2831858 C10.9646018,12.7719334 11.36081,13.1681416 11.8495575,13.1681416 L17.4513274,13.1681416 L17.4513274,15.6106195 C17.4502337,15.7915547 17.5594121,15.9549256 17.7270031,16.0231312 C17.8945941,16.0913369 18.0868262,16.050633 18.2123894,15.920354 L21.5663717,12.4778761 C21.7400301,12.3106821 21.7478998,12.0352436 21.5840708,11.8584071 Z" id="Exit_" fill="#FF0006"></path>
        </g>
    </g>
</svg>