<?xml version="1.0" encoding="UTF-8"?>
<svg width="24px" height="24px" viewBox="0 0 24 24" version="1.1" xmlns="http://www.w3.org/2000/svg" xmlns:xlink="http://www.w3.org/1999/xlink">
    <title>ic_settings_3</title>
    <g id="iOS" stroke="none" stroke-width="1" fill="none" fill-rule="evenodd">
        <g id="ic_settings_3">
            <rect id="Rectangle" x="0" y="0" width="24" height="24"></rect>
            <g id="translate" transform="translate(2.000000, 2.000000)" fill="#000000" fill-rule="nonzero">
                <path d="M1.7578125,15.3125 L11.7578125,15.3125 C11.9460547,15.3125 12.1228906,15.2221094 12.2333203,15.0692969 C12.3432031,14.9159375 12.3735156,14.7196875 12.3134375,14.5411328 L7.62648437,0.401132812 C7.54695312,0.161367188 7.32265625,0 7.0703125,0 L1.7578125,0 C0.788515625,0 0,0.788515625 0,1.7578125 L0,13.5546875 C0,14.5239844 0.788515625,15.3125 1.7578125,15.3125 Z M4.7265625,4.765625 C5.50992188,4.765625 6.24519531,5.070625 6.79851563,5.62394531 C7.02683594,5.85339844 7.02683594,6.22417969 6.79792969,6.45308594 C6.5690625,6.68082031 6.19769531,6.68140625 5.96878906,6.4525 C5.6375,6.12003906 5.19632813,5.9375 4.7265625,5.9375 C3.75726563,5.9375 2.96875,6.72601563 2.96875,7.6953125 C2.96875,8.66460938 3.75726563,9.453125 4.7265625,9.453125 C5.48945313,9.453125 6.13375,8.96179688 6.37644531,8.28125 L5.3125,8.28125 C4.98863281,8.28125 4.7265625,8.01917969 4.7265625,7.6953125 C4.7265625,7.37144531 4.98863281,7.109375 5.3125,7.109375 L7.0703125,7.109375 C7.39417969,7.109375 7.65625,7.37144531 7.65625,7.6953125 C7.65625,9.31066406 6.34191406,10.625 4.7265625,10.625 C3.11121094,10.625 1.796875,9.31066406 1.796875,7.6953125 C1.796875,6.07996094 3.11121094,4.765625 4.7265625,4.765625 Z" id="Shape"></path>
                <path d="M18.2421875,4.765625 L10.3123047,4.765625 L13.4260547,14.1328125 C13.5641016,14.5478906 13.5396484,15.0146094 13.3589063,15.4131641 L11.2791797,20 L18.2421875,20 C19.2130078,20 20,19.2130078 20,18.2421875 L20,6.5234375 C20,5.55261719 19.2130078,4.765625 18.2421875,4.765625 Z M17.6171875,10.5857813 L17.5474219,10.5857813 C17.3722656,11.36625 16.8665625,12.3002344 16.0371484,13.3724219 C16.4949219,13.9062891 16.8536328,14.2669922 16.8597656,14.2731641 C17.0884375,14.5020703 17.0883203,14.8730469 16.8594922,15.1017578 C16.7450781,15.2160938 16.5951563,15.2732813 16.4452734,15.2732813 C16.2953516,15.2732813 16.1454297,15.2160938 16.0310547,15.1016797 C16.006875,15.0775 15.6950781,14.7642969 15.2785547,14.2877344 C14.8517969,14.7709766 14.5322266,15.0857813 14.5119922,15.1055859 C14.3979297,15.2175 14.2497266,15.2732813 14.1016406,15.2732813 C13.9498047,15.2732813 13.7980859,15.2146484 13.6833594,15.0977344 C13.4567187,14.8667578 13.4602344,14.4957813 13.6912109,14.2691406 C13.9444922,14.0203125 14.233125,13.7126953 14.5259375,13.3730469 C14.3541797,13.1500781 14.1818359,12.9148047 14.0174609,12.6730859 C13.8355078,12.4054688 13.9049219,12.0410547 14.1725,11.8590625 C14.4400781,11.6770703 14.8044922,11.7465234 14.9864844,12.0141016 C15.0819922,12.1545703 15.1810156,12.293125 15.2812891,12.4285156 C15.746875,11.7965625 16.1471875,11.1398438 16.3335547,10.5857813 L12.9296875,10.5857813 C12.6060938,10.5857813 12.34375,10.3234375 12.34375,9.99984375 C12.34375,9.67625 12.6060938,9.41390625 12.9296875,9.41390625 L14.6875,9.41390625 L14.6875,8.82796875 C14.6875,8.504375 14.9498438,8.24203125 15.2734375,8.24203125 C15.5970313,8.24203125 15.859375,8.504375 15.859375,8.82796875 L15.859375,9.41390625 L17.6171875,9.41390625 C17.9407813,9.41390625 18.203125,9.67625 18.203125,9.99984375 C18.203125,10.3234375 17.9407813,10.5857813 17.6171875,10.5857813 L17.6171875,10.5857813 Z" id="Shape"></path>
                <path d="M8.02140625,16.484375 C9.12886719,19.8326562 9.03753906,19.8016016 9.35945312,19.9475781 C9.43796875,19.9831641 9.52015625,20.0000391 9.60109375,20.0000001 C9.82398438,20.0000001 10.0370313,19.8721094 10.1350781,19.6558984 L11.5730859,16.484375 L8.02140625,16.484375 Z" id="Path"></path>
            </g>
        </g>
    </g>
</svg>