<?xml version="1.0" encoding="UTF-8"?>
<svg width="24px" height="24px" viewBox="0 0 24 24" version="1.1" xmlns="http://www.w3.org/2000/svg" xmlns:xlink="http://www.w3.org/1999/xlink">
    <title>ic_settings_1</title>
    <g id="iOS" stroke="none" stroke-width="1" fill="none" fill-rule="evenodd">
        <g id="ic_settings_1">
            <rect id="Rectangle" x="0" y="0" width="24" height="24"></rect>
            <path d="M11.3634334,17.0861217 L13.1602978,18.7440979 C13.6037313,19.1525516 13.8237093,19.7493154 13.7514718,20.3478548 C13.6792343,20.9463942 13.3235942,21.4736869 12.7957166,21.7649133 L12.7957166,21.7649133 C12.0891795,22.1565225 11.2112517,22.0515909 10.6169101,21.5044982 L7.91727334,19.0218741 C7.37256111,18.5351529 6.58144618,18.4414683 5.93811843,18.7875004 L5.93811843,18.7875004 C5.53527364,19.0110154 5.06010719,19.0652475 4.61725788,18.9382539 C4.17440857,18.8112604 3.80019382,18.5134558 3.57702134,18.1104211 L2.32702877,15.8534901 C1.9917563,15.2492229 1.9104082,14.5364732 2.10089853,13.8721993 C2.29138885,13.2079253 2.73809578,12.6466032 3.34264774,12.3118445 L9.06309987,9.15214101 C9.49692797,8.90976535 9.85234861,8.54832062 10.0873993,8.11048053 L13.1168952,2.66780453 C13.3468569,2.25552015 13.7819599,2 14.2540413,2 C14.7261226,2 15.1612256,2.25552015 15.3911873,2.66780453 L21.6064281,13.9090572 C21.8443918,14.3406316 21.8183009,14.8695729 21.5390195,15.2756333 C21.2597381,15.6816937 20.7751334,15.895277 20.2869915,15.8274486 L13.9328626,14.9593982 C13.373146,14.8818785 12.8034014,14.9885152 12.3096084,15.2632158 L11.528363,15.697241 C11.2881887,15.8334439 11.1271355,16.0757816 11.0945766,16.3499619 C11.0620177,16.6241422 11.161837,16.8974585 11.3634334,17.0861217 L11.3634334,17.0861217 Z" id="Channel" fill="#2C2C2C"></path>
        </g>
    </g>
</svg>