<?xml version="1.0" encoding="UTF-8"?>
<svg width="24px" height="24px" viewBox="0 0 24 24" version="1.1" xmlns="http://www.w3.org/2000/svg" xmlns:xlink="http://www.w3.org/1999/xlink">
    <title>ic_settings_2</title>
    <g id="iOS" stroke="none" stroke-width="1" fill="none" fill-rule="evenodd">
        <g id="ic_settings_2">
            <rect id="Rectangle" x="0" y="0" width="24" height="24"></rect>
            <path d="M21.3333333,7 L21.3333333,7.83333333 C21.3333333,8.75380792 20.5871412,9.5 19.6666667,9.5 L17.5666667,19.9916667 C17.3324893,21.1591451 16.3073995,21.9994398 15.1166667,22 L9.21666667,22 C8.02593388,21.9994398 7.00084401,21.1591451 6.76666667,19.9916667 L4.66666667,9.5 C3.74619208,9.5 3,8.75380792 3,7.83333333 L3,7 C3,6.07952542 3.74619208,5.33333333 4.66666667,5.33333333 L19.6666667,5.33333333 C20.5871412,5.33333333 21.3333333,6.07952542 21.3333333,7 Z M9.66666667,3.66666667 L14.6666667,3.66666667 C15.126904,3.66666667 15.5,3.29357062 15.5,2.83333333 C15.5,2.37309604 15.126904,2 14.6666667,2 L9.66666667,2 C9.20642938,2 8.83333333,2.37309604 8.83333333,2.83333333 C8.83333333,3.29357062 9.20642938,3.66666667 9.66666667,3.66666667 Z" id="Basket" fill="#2C2C2C"></path>
        </g>
    </g>
</svg>