<?xml version="1.0" encoding="UTF-8"?>
<svg width="24px" height="24px" viewBox="0 0 24 24" version="1.1" xmlns="http://www.w3.org/2000/svg" xmlns:xlink="http://www.w3.org/1999/xlink">
    <title>ic_settings_4</title>
    <g id="iOS" stroke="none" stroke-width="1" fill="none" fill-rule="evenodd">
        <g id="ic_settings_4">
            <rect id="Rectangle" x="0" y="0" width="24" height="24"></rect>
            <path d="M2,12.9145424 L2,11.111966 C2,9.61866277 3.21056142,8.40810135 4.70386461,8.40810135 L4.93819954,8.40810135 C5.36783375,8.4081344 5.7833522,8.2547122 6.1098742,7.97548301 L11.1570881,3.64929964 C11.6586068,3.22023622 12.2997428,2.98942726 12.9596645,3.00037214 L12.9596645,3.00037214 C13.9004455,3.00037214 14.6630992,3.76302583 14.6630992,4.70380684 L14.6630992,19.3227015 C14.6630992,20.2634825 13.9004455,21.0261362 12.9596645,21.0261362 L12.9596645,21.0261362 C12.2997428,21.0370811 11.6586068,20.8062721 11.1570881,20.3772087 L6.1098742,16.0510253 C5.7833522,15.7717961 5.36783375,15.6183739 4.93819954,15.618407 L4.70386461,15.618407 C3.21056142,15.618407 2,14.4078455 2,12.9145424 Z M21.783276,13.2840705 L20.5124597,12.0132542 L21.783276,10.7424378 C22.0895129,10.3848424 22.0689234,9.85179004 21.7360154,9.51888208 C21.4031074,9.18597411 20.870055,9.16538461 20.5124597,9.47162143 L19.2416433,10.7424378 L17.9708269,9.47162143 C17.6132316,9.16538461 17.0801792,9.18597411 16.7472712,9.51888208 C16.4143633,9.85179004 16.3937738,10.3848424 16.7000106,10.7424378 L17.9708269,12.0132542 L16.7000106,13.2840705 C16.3937738,13.6416659 16.4143633,14.1747183 16.7472712,14.5076262 C17.0801792,14.8405342 17.6132316,14.8611237 17.9708269,14.5548869 L19.2416433,13.2840705 L20.5124597,14.5548869 C20.870055,14.8611237 21.4031074,14.8405342 21.7360154,14.5076262 C22.0689234,14.1747183 22.0895129,13.6416659 21.783276,13.2840705 Z" id="Turn_off" fill="#2C2C2C"></path>
        </g>
    </g>
</svg>