<?xml version="1.0" encoding="UTF-8"?>
<svg width="246px" height="56px" viewBox="0 0 246 56" version="1.1" xmlns="http://www.w3.org/2000/svg" xmlns:xlink="http://www.w3.org/1999/xlink">
    <title>ic_logo</title>
    <g id="iOS" stroke="none" stroke-width="1" fill="none" fill-rule="evenodd">
        <g id="Group">
            <polygon id="Path" fill="#22201E" fill-rule="nonzero" points="227.565857 38.4724296 245.270817 38.4724296 245.270817 32.3556119 235.050323 32.3556119 235.050323 27.1126252 244.092901 27.1126252 244.092901 20.8055259 235.050323 20.8055259 235.050323 16.1324689 245.270817 16.1324689 245.270817 9.93953852 227.565857 9.93953852"></polygon>
            <polygon id="Path" points="227.565857 38.4724296 245.270817 38.4724296 245.270817 32.3556119 235.050323 32.3556119 235.050323 27.1126252 244.092901 27.1126252 244.092901 20.8055259 235.050323 20.8055259 235.050323 16.1324689 245.270817 16.1324689 245.270817 9.93953852 227.565857 9.93953852"></polygon>
            <polygon id="Path" fill="#22201E" fill-rule="nonzero" points="223.962219 38.5104859 223.962219 9.97759481 216.47757 9.97759481 216.47757 23.4462304 202.989906 9.97759481 199.950525 9.97759481 199.950525 38.5104859 207.435174 38.5104859 207.435174 25.0037941 220.884781 38.5104859"></polygon>
            <polygon id="Path" points="223.962219 38.5104859 223.962219 9.97759481 216.47757 9.97759481 216.47757 23.4462304 202.989906 9.97759481 199.950525 9.97759481 199.950525 38.5104859 207.435174 38.5104859 207.435174 25.0037941 220.884781 38.5104859"></polygon>
            <polygon id="Path" fill="#22201E" fill-rule="nonzero" points="151.123565 9.97759481 126.769731 9.97759481 126.769731 17.500117 138.167592 17.500117 126.048125 38.4724296 150.021762 38.4724296 150.021762 30.9879637 139.00355 30.9879637"></polygon>
            <polygon id="Path" points="151.123565 9.97759481 126.769731 9.97759481 126.769731 17.500117 138.167592 17.500117 126.048125 38.4724296 150.021762 38.4724296 150.021762 30.9879637 139.00355 30.9879637"></polygon>
            <path d="M14.6154474,23.161357 L14.6154474,28.1765548 L20.1242793,28.1765548 C18.9467296,29.8861607 16.8569267,30.9879637 14.6154474,30.9879637 C11.120123,30.9879637 7.8906437,28.1383156 7.8906437,24.2252867 C7.8906437,20.2928637 11.0440104,17.4245533 14.6154474,17.4245533 C16.5530252,17.4245533 18.1488281,18.1908022 19.3644341,19.3368822 L24.6452941,14.0810881 C22.061857,11.5358904 18.5284763,9.94008741 14.6154474,9.94008741 C6.75078444,9.94008741 0.406177778,16.3225674 0.406177778,24.2252867 C0.406177778,32.0895837 6.75078444,38.4724296 14.6154474,38.4724296 C22.4801104,38.4724296 28.8625904,32.0895837 28.8625904,24.2252867 L28.8625904,23.161357 L14.6154474,23.161357 Z M31.8264074,24.26316 C31.8264074,32.1656963 38.171197,38.5104859 46.0353111,38.5104859 C53.8999741,38.5104859 60.28282,32.1656963 60.28282,24.26316 C60.28282,16.3608067 53.8999741,9.94008741 46.0353111,9.94008741 C38.171197,9.94008741 31.8264074,16.3608067 31.8264074,24.26316 Z M52.8360444,24.2252867 C52.8360444,27.9676111 49.7966637,31.0637104 46.0353111,31.0637104 C42.3121978,31.0637104 39.272817,27.9676111 39.272817,24.2252867 C39.272817,20.4385022 42.3121978,17.386497 46.0353111,17.386497 C49.7966637,17.386497 52.8360444,20.4385022 52.8360444,24.2252867 Z M64.3480741,24.26316 C64.3480741,32.1656963 70.6926807,38.5104859 78.5569778,38.5104859 C86.4216407,38.5104859 92.8044867,32.1656963 92.8044867,24.26316 C92.8044867,16.3608067 86.4216407,9.94008741 78.5569778,9.94008741 C70.6926807,9.94008741 64.3480741,16.3608067 64.3480741,24.26316 L64.3480741,24.26316 Z M85.3577111,24.2252867 C85.3577111,27.9676111 82.3183304,31.0637104 78.5569778,31.0637104 C74.8338644,31.0637104 71.7944837,27.9676111 71.7944837,24.2252867 C71.7944837,20.4385022 74.8338644,17.386497 78.5569778,17.386497 C82.3183304,17.386497 85.3577111,20.4385022 85.3577111,24.2252867 Z M98.009417,38.4724296 L108.571137,38.4724296 C116.435617,38.4724296 122.818463,32.0769593 122.818463,24.2062585 C122.818463,16.3353748 116.435617,9.94008741 108.571137,9.94008741 L98.009417,9.94008741 L98.009417,38.4724296 L98.009417,38.4724296 Z M105.455827,17.5132904 L108.609193,17.5132904 C112.33249,17.5132904 115.371687,20.5524881 115.371687,24.2441319 C115.371687,27.9740148 112.33249,31.0132126 108.609193,31.0132126 L105.455827,31.0132126 L105.455827,17.5132904 L105.455827,17.5132904 Z" id="Shape" fill="#E31E24" fill-rule="nonzero"></path>
            <path d="M14.6154474,23.161357 L14.6154474,28.1765548 L20.1242793,28.1765548 C18.9467296,29.8861607 16.8569267,30.9879637 14.6154474,30.9879637 C11.120123,30.9879637 7.8906437,28.1383156 7.8906437,24.2252867 C7.8906437,20.2928637 11.0440104,17.4245533 14.6154474,17.4245533 C16.5530252,17.4245533 18.1488281,18.1908022 19.3644341,19.3368822 L24.6452941,14.0810881 C22.061857,11.5358904 18.5284763,9.94008741 14.6154474,9.94008741 C6.75078444,9.94008741 0.406177778,16.3225674 0.406177778,24.2252867 C0.406177778,32.0895837 6.75078444,38.4724296 14.6154474,38.4724296 C22.4801104,38.4724296 28.8625904,32.0895837 28.8625904,24.2252867 L28.8625904,23.161357 L14.6154474,23.161357 Z M31.8264074,24.26316 C31.8264074,32.1656963 38.171197,38.5104859 46.0353111,38.5104859 C53.8999741,38.5104859 60.28282,32.1656963 60.28282,24.26316 C60.28282,16.3608067 53.8999741,9.94008741 46.0353111,9.94008741 C38.171197,9.94008741 31.8264074,16.3608067 31.8264074,24.26316 Z M52.8360444,24.2252867 C52.8360444,27.9676111 49.7966637,31.0637104 46.0353111,31.0637104 C42.3121978,31.0637104 39.272817,27.9676111 39.272817,24.2252867 C39.272817,20.4385022 42.3121978,17.386497 46.0353111,17.386497 C49.7966637,17.386497 52.8360444,20.4385022 52.8360444,24.2252867 Z M64.3480741,24.26316 C64.3480741,32.1656963 70.6926807,38.5104859 78.5569778,38.5104859 C86.4216407,38.5104859 92.8044867,32.1656963 92.8044867,24.26316 C92.8044867,16.3608067 86.4216407,9.94008741 78.5569778,9.94008741 C70.6926807,9.94008741 64.3480741,16.3608067 64.3480741,24.26316 L64.3480741,24.26316 Z M85.3577111,24.2252867 C85.3577111,27.9676111 82.3183304,31.0637104 78.5569778,31.0637104 C74.8338644,31.0637104 71.7944837,27.9676111 71.7944837,24.2252867 C71.7944837,20.4385022 74.8338644,17.386497 78.5569778,17.386497 C82.3183304,17.386497 85.3577111,20.4385022 85.3577111,24.2252867 Z M98.009417,38.4724296 L108.571137,38.4724296 C116.435617,38.4724296 122.818463,32.0769593 122.818463,24.2062585 C122.818463,16.3353748 116.435617,9.94008741 108.571137,9.94008741 L98.009417,9.94008741 L98.009417,38.4724296 L98.009417,38.4724296 Z M105.455827,17.5132904 L108.609193,17.5132904 C112.33249,17.5132904 115.371687,20.5524881 115.371687,24.2441319 C115.371687,27.9740148 112.33249,31.0132126 108.609193,31.0132126 L105.455827,31.0132126 L105.455827,17.5132904 L105.455827,17.5132904 Z" id="Shape"></path>
            <path d="M119.118769,14.748903 C116.511913,11.8745548 112.750926,10.0687104 108.571137,10.0687104 L98.009417,10.0687104 L98.009417,38.4724296 L105.455827,30.1040696 L105.455827,17.6417304 L108.609193,17.6417304 C110.848477,17.6417304 112.839846,18.7413378 114.071919,20.4207548 L119.118769,14.748903 L119.118769,14.748903 Z" id="Path" fill="#D1212C" fill-rule="nonzero"></path>
            <path d="M119.118769,14.748903 C116.511913,11.8745548 112.750926,10.0687104 108.571137,10.0687104 L98.009417,10.0687104 L98.009417,38.4724296 L105.455827,30.1040696 L105.455827,17.6417304 L108.609193,17.6417304 C110.848477,17.6417304 112.839846,18.7413378 114.071919,20.4207548 L119.118769,14.748903 L119.118769,14.748903 Z" id="Path"></path>
            <path d="M74.3792015,29.6201326 C72.7980356,28.3622622 71.7785659,26.411877 71.7785659,24.2446807 C71.7785659,20.4578963 74.8179467,17.4058911 78.54106,17.4058911 C80.453023,17.4058911 82.1783637,18.1948274 83.4128148,19.4680667 L88.3599504,13.9083711 C85.8037748,11.4621563 82.3459578,9.95948148 78.54106,9.95948148 C70.6769459,9.95948148 64.3321563,16.3800178 64.3321563,24.2823711 C64.3321563,28.6848259 66.3015696,32.6026119 69.4049874,35.2105659 L74.3792015,29.6201326 L74.3792015,29.6201326 Z" id="Path" fill="#D1212C" fill-rule="nonzero"></path>
            <path d="M74.3792015,29.6201326 C72.7980356,28.3622622 71.7785659,26.411877 71.7785659,24.2446807 C71.7785659,20.4578963 74.8179467,17.4058911 78.54106,17.4058911 C80.453023,17.4058911 82.1783637,18.1948274 83.4128148,19.4680667 L88.3599504,13.9083711 C85.8037748,11.4621563 82.3459578,9.95948148 78.54106,9.95948148 C70.6769459,9.95948148 64.3321563,16.3800178 64.3321563,24.2823711 C64.3321563,28.6848259 66.3015696,32.6026119 69.4049874,35.2105659 L74.3792015,29.6201326 L74.3792015,29.6201326 Z" id="Path"></path>
            <path d="M14.6154474,23.161357 L14.6154474,27.652 L18.6113585,23.161357 L14.6154474,23.161357 Z M12.0958644,30.4837178 C9.71021037,29.5004748 7.8906437,27.1623911 7.8906437,24.2252867 C7.8906437,20.2928637 11.0440104,17.4245533 14.6154474,17.4245533 C16.5530252,17.4245533 18.1488281,18.1908022 19.3644341,19.3368822 L24.6452941,14.0810881 C22.061857,11.5358904 18.5284763,9.94008741 14.6154474,9.94008741 C6.75078444,9.94008741 0.406177778,16.3225674 0.406177778,24.2252867 C0.406177778,29.2730519 3.02035259,33.7104526 6.97253556,36.2413793 L12.0958644,30.4837178 L12.0958644,30.4837178 Z" id="Shape" fill="#D1212C" fill-rule="nonzero"></path>
            <path d="M14.6154474,23.161357 L14.6154474,27.652 L18.6113585,23.161357 L14.6154474,23.161357 Z M12.0958644,30.4837178 C9.71021037,29.5004748 7.8906437,27.1623911 7.8906437,24.2252867 C7.8906437,20.2928637 11.0440104,17.4245533 14.6154474,17.4245533 C16.5530252,17.4245533 18.1488281,18.1908022 19.3644341,19.3368822 L24.6452941,14.0810881 C22.061857,11.5358904 18.5284763,9.94008741 14.6154474,9.94008741 C6.75078444,9.94008741 0.406177778,16.3225674 0.406177778,24.2252867 C0.406177778,29.2730519 3.02035259,33.7104526 6.97253556,36.2413793 L12.0958644,30.4837178 L12.0958644,30.4837178 Z" id="Shape"></path>
            <path d="M41.8734526,29.6007385 C40.2922867,28.3428681 39.272817,26.392483 39.272817,24.2252867 C39.272817,20.4385022 42.3121978,17.386497 46.0353111,17.386497 C47.9472741,17.386497 49.6726148,18.1754333 50.9070659,19.4486726 L55.8542015,13.888977 C53.2980259,11.4427622 49.8402089,9.94008741 46.0353111,9.94008741 C38.171197,9.94008741 31.8264074,16.3608067 31.8264074,24.26316 C31.8264074,28.6654319 33.7958207,32.5832178 36.8992385,35.1911719 L41.8734526,29.6007385 L41.8734526,29.6007385 Z" id="Path" fill="#D1212C" fill-rule="nonzero"></path>
            <path d="M41.8734526,29.6007385 C40.2922867,28.3428681 39.272817,26.392483 39.272817,24.2252867 C39.272817,20.4385022 42.3121978,17.386497 46.0353111,17.386497 C47.9472741,17.386497 49.6726148,18.1754333 50.9070659,19.4486726 L55.8542015,13.888977 C53.2980259,11.4427622 49.8402089,9.94008741 46.0353111,9.94008741 C38.171197,9.94008741 31.8264074,16.3608067 31.8264074,24.26316 C31.8264074,28.6654319 33.7958207,32.5832178 36.8992385,35.1911719 L41.8734526,29.6007385 L41.8734526,29.6007385 Z" id="Path"></path>
            <path d="M15.0122941,23.5582037 L15.0122941,27.7797081 L20.1242793,27.7797081 L20.8777207,27.7797081 L20.4497704,28.4012333 C19.8185481,29.3178778 18.9425215,30.0696726 17.9263452,30.5881896 C16.9271844,31.0977415 15.7904356,31.3848104 14.6154474,31.3848104 C12.7151941,31.3848104 10.8894067,30.5898363 9.56292519,29.2556704 C8.30432296,27.9901156 7.49379704,26.2404407 7.49379704,24.2252867 C7.49379704,22.1907385 8.29389407,20.4242311 9.55341111,19.150443 L9.55341111,19.1489793 C10.867817,17.8195704 12.6839074,17.0277067 14.6154474,17.0277067 C15.5935674,17.0277067 16.4924644,17.2141459 17.3059178,17.5414667 C18.0659459,17.8475637 18.7491296,18.2771607 19.3505289,18.7923844 L24.0790237,14.086577 C22.8568311,12.9479985 21.4322815,12.0212911 19.8657526,11.374883 C18.2494578,10.7078 16.4772785,10.3369341 14.6154474,10.3369341 C10.7926193,10.3369341 7.33974222,11.8875452 4.84302963,14.3974311 C2.34540222,16.9084148 0.803024444,20.3817837 0.803024444,24.2252867 C0.803024444,28.0514081 2.34723185,31.5174585 4.8476037,34.0240511 C7.34358444,36.5268015 10.7948148,38.075583 14.6154474,38.075583 C18.4377267,38.075583 21.9010326,36.524057 24.4076252,34.0174644 C26.9142178,31.5108719 28.4657437,28.0475659 28.4657437,24.2252867 L28.4657437,23.5582037 L15.0122941,23.5582037 Z M14.2186007,28.1765548 L14.2186007,23.161357 L14.2186007,22.7645104 L14.6154474,22.7645104 L28.8625904,22.7645104 L29.259437,22.7645104 L29.259437,23.161357 L29.259437,24.2252867 C29.259437,28.2669385 27.6189911,31.9285763 24.9687726,34.5787948 C22.318737,37.2288304 18.6570993,38.8692763 14.6154474,38.8692763 C10.5772719,38.8692763 6.9273437,37.230477 4.28627333,34.5822711 C1.64209259,31.9315037 0.00933111111,28.2682193 0.00933111111,24.2252867 C0.00933111111,20.1655215 1.64044593,16.4943696 4.28169926,13.8392111 C6.92331852,11.1836867 10.5750763,9.54324074 14.6154474,9.54324074 C16.5797378,9.54324074 18.4536444,9.93624519 20.1667267,10.643397 C21.9559215,11.3818356 23.5678252,12.4638785 24.9228489,13.7989593 L25.2075393,14.0798074 L24.9244956,14.3617533 L19.6436356,19.6175474 L19.3717526,19.8881496 L19.093283,19.6252319 C18.4938963,19.0600593 17.7973563,18.5927719 17.0111644,18.2762459 C16.2915711,17.9866156 15.4914741,17.821583 14.6154474,17.821583 C12.8999867,17.821583 11.2862533,18.5254415 10.1178519,19.7070163 L10.117303,19.7064674 C8.99866741,20.8382763 8.28749037,22.4112089 8.28749037,24.2252867 C8.28749037,26.0185067 9.00690074,27.5738748 10.1242556,28.6974504 C11.3036348,29.8839652 12.9270652,30.5909341 14.6154474,30.5909341 C15.6634593,30.5909341 16.6768911,30.3355178 17.566823,29.8814037 C18.2247578,29.5454837 18.8151793,29.1019815 19.3020437,28.5734015 L14.6154474,28.5734015 L14.2186007,28.5734015 L14.2186007,28.1765548 L14.2186007,28.1765548 Z M32.2232541,24.26316 C32.2232541,28.1037356 33.7636193,31.5657607 36.2583193,34.0668644 C38.7546659,36.5707126 42.2099215,38.1136393 46.0353111,38.1136393 C49.8627133,38.1136393 53.3294956,36.5677852 55.837003,34.0602778 C58.3381067,31.5589911 59.8859733,28.0997104 59.8859733,24.26316 C59.8859733,20.4194741 58.3340815,16.936957 55.826757,14.4164593 C53.3205304,11.8968763 49.8579563,10.3369341 46.0353111,10.3369341 C42.2159593,10.3369341 38.7645459,11.8948637 36.2683822,14.4109704 C33.7678274,16.9318341 32.2232541,20.4167296 32.2232541,24.26316 L32.2232541,24.26316 Z M35.6969889,34.6250844 C33.0588459,31.9798059 31.4295607,28.3207296 31.4295607,24.26316 C31.4295607,20.2013822 33.0630541,16.5185207 35.7070519,13.8529333 C38.3475733,11.1913711 41.9975015,9.54324074 46.0353111,9.54324074 C50.0758652,9.54324074 53.737137,11.1932007 56.3880874,13.8582393 C59.0392207,16.5232778 60.6796667,20.2033948 60.6796667,24.26316 C60.6796667,28.319083 59.043063,31.9768785 56.3983333,34.6216081 C53.7472,37.2725585 50.081537,38.9073326 46.0353111,38.9073326 C41.9923785,38.9073326 38.3387911,37.2745711 35.6969889,34.6250844 L35.6969889,34.6250844 Z M53.2328911,24.2252867 C53.2328911,26.2089711 52.4241948,28.0221341 51.1171074,29.3369059 C49.8156919,30.6452741 48.0202763,31.460557 46.0353111,31.460557 C44.0658978,31.460557 42.2778007,30.6434444 40.9813252,29.3325148 C39.6822881,28.0193896 38.8759704,26.2076904 38.8759704,24.2252867 C38.8759704,22.2256844 39.6775311,20.4194741 40.9705304,19.1120207 L40.9714452,19.1127526 C42.2695674,17.8001763 44.0624215,16.9896504 46.0353111,16.9896504 C48.0253993,16.9896504 49.8259378,17.7987126 51.1279022,19.1079956 C52.4289519,20.4163637 53.2328911,22.2244037 53.2328911,24.2252867 L53.2328911,24.2252867 Z M50.555777,28.7788689 C51.7194215,27.6088207 52.4391978,25.9934407 52.4391978,24.2252867 C52.4391978,22.4406659 51.7238126,20.830043 50.5665719,19.6662156 C49.4093311,18.5022052 47.8073074,17.7833437 46.0353111,17.7833437 C44.2806963,17.7833437 42.6874548,18.50312 41.5349711,19.6685941 L41.5349711,19.6702407 C40.3837681,20.8344341 39.6696637,22.4439593 39.6696637,24.2252867 C39.6696637,25.9903304 40.3881593,27.6040637 41.5457659,28.7742948 C42.6986156,29.9401348 44.287283,30.6668637 46.0353111,30.6668637 C47.8016356,30.6668637 49.3989022,29.9421474 50.555777,28.7788689 L50.555777,28.7788689 Z M64.7449207,24.26316 C64.7449207,28.1037356 66.2852859,31.5657607 68.779803,34.0668644 C71.2763326,36.5707126 74.7315881,38.1136393 78.5569778,38.1136393 C82.38438,38.1136393 85.8509793,36.5677852 88.3586696,34.0602778 C90.8597733,31.5589911 92.40764,28.0997104 92.40764,24.26316 C92.40764,20.4194741 90.8557481,16.936957 88.3484237,14.4164593 C85.842197,11.8968763 82.379623,10.3369341 78.5569778,10.3369341 C74.7376259,10.3369341 71.2862126,11.8948637 68.7900489,14.4109704 C66.2894941,16.9318341 64.7449207,20.4167296 64.7449207,24.26316 L64.7449207,24.26316 Z M68.2184726,34.6250844 C65.5805126,31.9798059 63.9510444,28.3207296 63.9510444,24.26316 C63.9510444,20.2013822 65.5845378,16.5185207 68.2287185,13.8529333 C70.86924,11.1913711 74.5191681,9.54324074 78.5569778,9.54324074 C82.5973489,9.54324074 86.2588037,11.1932007 88.9097541,13.8582393 C91.5608874,16.5232778 93.2013333,20.2033948 93.2013333,24.26316 C93.2013333,28.319083 91.5647296,31.9768785 88.92,34.6216081 C86.2688667,37.2725585 82.6032037,38.9073326 78.5569778,38.9073326 C74.5140452,38.9073326 70.8604578,37.2745711 68.2184726,34.6250844 L68.2184726,34.6250844 Z M85.7545578,24.2252867 C85.7545578,26.2089711 84.9458615,28.0221341 83.6387741,29.3369059 C82.3373585,30.6452741 80.541943,31.460557 78.5569778,31.460557 C76.5875644,31.460557 74.7994674,30.6434444 73.5028089,29.3325148 C72.2039548,28.0193896 71.397637,26.2076904 71.397637,24.2252867 C71.397637,22.2256844 72.1991978,20.4194741 73.4920141,19.1120207 L73.4929289,19.1127526 C74.7912341,17.8001763 76.5840881,16.9896504 78.5569778,16.9896504 C80.5470659,16.9896504 82.3476044,17.7987126 83.6495689,19.1079956 C84.9506185,20.4163637 85.7545578,22.2244037 85.7545578,24.2252867 L85.7545578,24.2252867 Z M83.0774437,28.7788689 C84.2410881,27.6088207 84.9608644,25.9934407 84.9608644,24.2252867 C84.9608644,22.4406659 84.2454793,20.830043 83.0882385,19.6662156 C81.9309978,18.5022052 80.3289741,17.7833437 78.5569778,17.7833437 C76.80218,17.7833437 75.2091215,18.50312 74.0566378,19.6685941 L74.0566378,19.6702407 C72.9052519,20.8344341 72.1913304,22.4439593 72.1913304,24.2252867 C72.1913304,25.9903304 72.9098259,27.6040637 74.0674326,28.7742948 C75.2200993,29.9401348 76.8089496,30.6668637 78.5569778,30.6668637 C80.3233022,30.6668637 81.9205689,29.9421474 83.0774437,28.7788689 Z M98.4062637,38.075583 L108.571137,38.075583 C112.393965,38.075583 115.856539,36.5216785 118.362217,34.0128904 C120.869724,31.5022726 122.421616,28.0336607 122.421616,24.2062585 C122.421616,20.3788563 120.869724,16.9102444 118.362583,14.3996267 C115.856173,11.8904726 112.393965,10.3369341 108.571137,10.3369341 L98.4062637,10.3369341 L98.4062637,38.075583 L98.4062637,38.075583 Z M108.571137,38.8692763 L98.009417,38.8692763 L97.6125704,38.8692763 L97.6125704,38.4724296 L97.6125704,9.94008741 L97.6125704,9.54324074 L98.009417,9.54324074 L108.571137,9.54324074 C112.611508,9.54324074 116.272414,11.186797 118.923913,13.8414067 C121.574864,16.4960163 123.21531,20.1620452 123.21531,24.2062585 C123.21531,28.2504719 121.574498,31.9165007 118.923547,34.5711104 C116.272414,37.22572 112.611508,38.8692763 108.571137,38.8692763 L108.571137,38.8692763 Z M105.455827,17.1164437 L108.609193,17.1164437 C110.577326,17.1164437 112.365789,17.920017 113.662081,19.2102719 C114.96185,20.503637 115.768534,22.2878919 115.768534,24.2441319 C115.768534,26.2170215 114.964412,28.0082289 113.668119,29.3058022 C112.370546,30.6050222 110.579521,31.4100593 108.609193,31.4100593 L105.455827,31.4100593 L105.05898,31.4100593 L105.05898,31.0132126 L105.05898,17.5132904 L105.05898,17.1164437 L105.455827,17.1164437 L105.455827,17.1164437 Z M108.609193,17.910137 L105.852673,17.910137 L105.852673,30.6163659 L108.609193,30.6163659 C110.36271,30.6163659 111.954671,29.9011637 113.106789,28.7475822 C114.259639,27.5936348 114.974841,25.9998444 114.974841,24.2441319 C114.974841,22.5054348 114.258541,20.9206096 113.103861,19.7716022 C111.951378,18.6240585 110.360515,17.910137 108.609193,17.910137 Z" id="Shape" fill="#E73A40" fill-rule="nonzero"></path>
            <path d="M15.0122941,23.5582037 L15.0122941,27.7797081 L20.1242793,27.7797081 L20.8777207,27.7797081 L20.4497704,28.4012333 C19.8185481,29.3178778 18.9425215,30.0696726 17.9263452,30.5881896 C16.9271844,31.0977415 15.7904356,31.3848104 14.6154474,31.3848104 C12.7151941,31.3848104 10.8894067,30.5898363 9.56292519,29.2556704 C8.30432296,27.9901156 7.49379704,26.2404407 7.49379704,24.2252867 C7.49379704,22.1907385 8.29389407,20.4242311 9.55341111,19.150443 L9.55341111,19.1489793 C10.867817,17.8195704 12.6839074,17.0277067 14.6154474,17.0277067 C15.5935674,17.0277067 16.4924644,17.2141459 17.3059178,17.5414667 C18.0659459,17.8475637 18.7491296,18.2771607 19.3505289,18.7923844 L24.0790237,14.086577 C22.8568311,12.9479985 21.4322815,12.0212911 19.8657526,11.374883 C18.2494578,10.7078 16.4772785,10.3369341 14.6154474,10.3369341 C10.7926193,10.3369341 7.33974222,11.8875452 4.84302963,14.3974311 C2.34540222,16.9084148 0.803024444,20.3817837 0.803024444,24.2252867 C0.803024444,28.0514081 2.34723185,31.5174585 4.8476037,34.0240511 C7.34358444,36.5268015 10.7948148,38.075583 14.6154474,38.075583 C18.4377267,38.075583 21.9010326,36.524057 24.4076252,34.0174644 C26.9142178,31.5108719 28.4657437,28.0475659 28.4657437,24.2252867 L28.4657437,23.5582037 L15.0122941,23.5582037 Z M14.2186007,28.1765548 L14.2186007,23.161357 L14.2186007,22.7645104 L14.6154474,22.7645104 L28.8625904,22.7645104 L29.259437,22.7645104 L29.259437,23.161357 L29.259437,24.2252867 C29.259437,28.2669385 27.6189911,31.9285763 24.9687726,34.5787948 C22.318737,37.2288304 18.6570993,38.8692763 14.6154474,38.8692763 C10.5772719,38.8692763 6.9273437,37.230477 4.28627333,34.5822711 C1.64209259,31.9315037 0.00933111111,28.2682193 0.00933111111,24.2252867 C0.00933111111,20.1655215 1.64044593,16.4943696 4.28169926,13.8392111 C6.92331852,11.1836867 10.5750763,9.54324074 14.6154474,9.54324074 C16.5797378,9.54324074 18.4536444,9.93624519 20.1667267,10.643397 C21.9559215,11.3818356 23.5678252,12.4638785 24.9228489,13.7989593 L25.2075393,14.0798074 L24.9244956,14.3617533 L19.6436356,19.6175474 L19.3717526,19.8881496 L19.093283,19.6252319 C18.4938963,19.0600593 17.7973563,18.5927719 17.0111644,18.2762459 C16.2915711,17.9866156 15.4914741,17.821583 14.6154474,17.821583 C12.8999867,17.821583 11.2862533,18.5254415 10.1178519,19.7070163 L10.117303,19.7064674 C8.99866741,20.8382763 8.28749037,22.4112089 8.28749037,24.2252867 C8.28749037,26.0185067 9.00690074,27.5738748 10.1242556,28.6974504 C11.3036348,29.8839652 12.9270652,30.5909341 14.6154474,30.5909341 C15.6634593,30.5909341 16.6768911,30.3355178 17.566823,29.8814037 C18.2247578,29.5454837 18.8151793,29.1019815 19.3020437,28.5734015 L14.6154474,28.5734015 L14.2186007,28.5734015 L14.2186007,28.1765548 L14.2186007,28.1765548 Z M32.2232541,24.26316 C32.2232541,28.1037356 33.7636193,31.5657607 36.2583193,34.0668644 C38.7546659,36.5707126 42.2099215,38.1136393 46.0353111,38.1136393 C49.8627133,38.1136393 53.3294956,36.5677852 55.837003,34.0602778 C58.3381067,31.5589911 59.8859733,28.0997104 59.8859733,24.26316 C59.8859733,20.4194741 58.3340815,16.936957 55.826757,14.4164593 C53.3205304,11.8968763 49.8579563,10.3369341 46.0353111,10.3369341 C42.2159593,10.3369341 38.7645459,11.8948637 36.2683822,14.4109704 C33.7678274,16.9318341 32.2232541,20.4167296 32.2232541,24.26316 L32.2232541,24.26316 Z M35.6969889,34.6250844 C33.0588459,31.9798059 31.4295607,28.3207296 31.4295607,24.26316 C31.4295607,20.2013822 33.0630541,16.5185207 35.7070519,13.8529333 C38.3475733,11.1913711 41.9975015,9.54324074 46.0353111,9.54324074 C50.0758652,9.54324074 53.737137,11.1932007 56.3880874,13.8582393 C59.0392207,16.5232778 60.6796667,20.2033948 60.6796667,24.26316 C60.6796667,28.319083 59.043063,31.9768785 56.3983333,34.6216081 C53.7472,37.2725585 50.081537,38.9073326 46.0353111,38.9073326 C41.9923785,38.9073326 38.3387911,37.2745711 35.6969889,34.6250844 L35.6969889,34.6250844 Z M53.2328911,24.2252867 C53.2328911,26.2089711 52.4241948,28.0221341 51.1171074,29.3369059 C49.8156919,30.6452741 48.0202763,31.460557 46.0353111,31.460557 C44.0658978,31.460557 42.2778007,30.6434444 40.9813252,29.3325148 C39.6822881,28.0193896 38.8759704,26.2076904 38.8759704,24.2252867 C38.8759704,22.2256844 39.6775311,20.4194741 40.9705304,19.1120207 L40.9714452,19.1127526 C42.2695674,17.8001763 44.0624215,16.9896504 46.0353111,16.9896504 C48.0253993,16.9896504 49.8259378,17.7987126 51.1279022,19.1079956 C52.4289519,20.4163637 53.2328911,22.2244037 53.2328911,24.2252867 L53.2328911,24.2252867 Z M50.555777,28.7788689 C51.7194215,27.6088207 52.4391978,25.9934407 52.4391978,24.2252867 C52.4391978,22.4406659 51.7238126,20.830043 50.5665719,19.6662156 C49.4093311,18.5022052 47.8073074,17.7833437 46.0353111,17.7833437 C44.2806963,17.7833437 42.6874548,18.50312 41.5349711,19.6685941 L41.5349711,19.6702407 C40.3837681,20.8344341 39.6696637,22.4439593 39.6696637,24.2252867 C39.6696637,25.9903304 40.3881593,27.6040637 41.5457659,28.7742948 C42.6986156,29.9401348 44.287283,30.6668637 46.0353111,30.6668637 C47.8016356,30.6668637 49.3989022,29.9421474 50.555777,28.7788689 L50.555777,28.7788689 Z M64.7449207,24.26316 C64.7449207,28.1037356 66.2852859,31.5657607 68.779803,34.0668644 C71.2763326,36.5707126 74.7315881,38.1136393 78.5569778,38.1136393 C82.38438,38.1136393 85.8509793,36.5677852 88.3586696,34.0602778 C90.8597733,31.5589911 92.40764,28.0997104 92.40764,24.26316 C92.40764,20.4194741 90.8557481,16.936957 88.3484237,14.4164593 C85.842197,11.8968763 82.379623,10.3369341 78.5569778,10.3369341 C74.7376259,10.3369341 71.2862126,11.8948637 68.7900489,14.4109704 C66.2894941,16.9318341 64.7449207,20.4167296 64.7449207,24.26316 L64.7449207,24.26316 Z M68.2184726,34.6250844 C65.5805126,31.9798059 63.9510444,28.3207296 63.9510444,24.26316 C63.9510444,20.2013822 65.5845378,16.5185207 68.2287185,13.8529333 C70.86924,11.1913711 74.5191681,9.54324074 78.5569778,9.54324074 C82.5973489,9.54324074 86.2588037,11.1932007 88.9097541,13.8582393 C91.5608874,16.5232778 93.2013333,20.2033948 93.2013333,24.26316 C93.2013333,28.319083 91.5647296,31.9768785 88.92,34.6216081 C86.2688667,37.2725585 82.6032037,38.9073326 78.5569778,38.9073326 C74.5140452,38.9073326 70.8604578,37.2745711 68.2184726,34.6250844 L68.2184726,34.6250844 Z M85.7545578,24.2252867 C85.7545578,26.2089711 84.9458615,28.0221341 83.6387741,29.3369059 C82.3373585,30.6452741 80.541943,31.460557 78.5569778,31.460557 C76.5875644,31.460557 74.7994674,30.6434444 73.5028089,29.3325148 C72.2039548,28.0193896 71.397637,26.2076904 71.397637,24.2252867 C71.397637,22.2256844 72.1991978,20.4194741 73.4920141,19.1120207 L73.4929289,19.1127526 C74.7912341,17.8001763 76.5840881,16.9896504 78.5569778,16.9896504 C80.5470659,16.9896504 82.3476044,17.7987126 83.6495689,19.1079956 C84.9506185,20.4163637 85.7545578,22.2244037 85.7545578,24.2252867 L85.7545578,24.2252867 Z M83.0774437,28.7788689 C84.2410881,27.6088207 84.9608644,25.9934407 84.9608644,24.2252867 C84.9608644,22.4406659 84.2454793,20.830043 83.0882385,19.6662156 C81.9309978,18.5022052 80.3289741,17.7833437 78.5569778,17.7833437 C76.80218,17.7833437 75.2091215,18.50312 74.0566378,19.6685941 L74.0566378,19.6702407 C72.9052519,20.8344341 72.1913304,22.4439593 72.1913304,24.2252867 C72.1913304,25.9903304 72.9098259,27.6040637 74.0674326,28.7742948 C75.2200993,29.9401348 76.8089496,30.6668637 78.5569778,30.6668637 C80.3233022,30.6668637 81.9205689,29.9421474 83.0774437,28.7788689 Z M98.4062637,38.075583 L108.571137,38.075583 C112.393965,38.075583 115.856539,36.5216785 118.362217,34.0128904 C120.869724,31.5022726 122.421616,28.0336607 122.421616,24.2062585 C122.421616,20.3788563 120.869724,16.9102444 118.362583,14.3996267 C115.856173,11.8904726 112.393965,10.3369341 108.571137,10.3369341 L98.4062637,10.3369341 L98.4062637,38.075583 L98.4062637,38.075583 Z M108.571137,38.8692763 L98.009417,38.8692763 L97.6125704,38.8692763 L97.6125704,38.4724296 L97.6125704,9.94008741 L97.6125704,9.54324074 L98.009417,9.54324074 L108.571137,9.54324074 C112.611508,9.54324074 116.272414,11.186797 118.923913,13.8414067 C121.574864,16.4960163 123.21531,20.1620452 123.21531,24.2062585 C123.21531,28.2504719 121.574498,31.9165007 118.923547,34.5711104 C116.272414,37.22572 112.611508,38.8692763 108.571137,38.8692763 L108.571137,38.8692763 Z M105.455827,17.1164437 L108.609193,17.1164437 C110.577326,17.1164437 112.365789,17.920017 113.662081,19.2102719 C114.96185,20.503637 115.768534,22.2878919 115.768534,24.2441319 C115.768534,26.2170215 114.964412,28.0082289 113.668119,29.3058022 C112.370546,30.6050222 110.579521,31.4100593 108.609193,31.4100593 L105.455827,31.4100593 L105.05898,31.4100593 L105.05898,31.0132126 L105.05898,17.5132904 L105.05898,17.1164437 L105.455827,17.1164437 L105.455827,17.1164437 Z M108.609193,17.910137 L105.852673,17.910137 L105.852673,30.6163659 L108.609193,30.6163659 C110.36271,30.6163659 111.954671,29.9011637 113.106789,28.7475822 C114.259639,27.5936348 114.974841,25.9998444 114.974841,24.2441319 C114.974841,22.5054348 114.258541,20.9206096 113.103861,19.7716022 C111.951378,18.6240585 110.360515,17.910137 108.609193,17.910137 Z" id="Shape"></path>
            <path d="M174.840322,1.10773333 C162.561495,1.10773333 152.607395,11.0618333 152.607395,23.3406607 C152.607395,29.4757748 156.805663,36.2496126 161.553369,41.9494578 L167.537356,35.2244711 C163.536139,32.7665467 160.867258,28.3503696 160.867258,23.3101059 C160.867258,15.593277 167.12331,9.33740741 174.840322,9.33740741 C179.296751,9.33740741 183.265767,11.4237341 185.824321,14.6726074 L191.354376,8.45753852 C187.285097,3.94567185 181.394787,1.10773333 174.840322,1.10773333 Z" id="Path" fill="#D1212C" fill-rule="nonzero"></path>
            <path d="M174.840322,1.10773333 C162.561495,1.10773333 152.607395,11.0618333 152.607395,23.3406607 C152.607395,29.4757748 156.805663,36.2496126 161.553369,41.9494578 L167.537356,35.2244711 C163.536139,32.7665467 160.867258,28.3503696 160.867258,23.3101059 C160.867258,15.593277 167.12331,9.33740741 174.840322,9.33740741 C179.296751,9.33740741 183.265767,11.4237341 185.824321,14.6726074 L191.354376,8.45753852 C187.285097,3.94567185 181.394787,1.10773333 174.840322,1.10773333 Z" id="Path"></path>
            <path d="M161.553369,41.9494578 C167.731662,49.3669593 174.840322,54.9648941 174.840322,54.9648941 C174.840322,54.9648941 197.073433,37.4595467 197.073433,23.3406607 C197.073433,17.6162985 194.908249,12.3983778 191.354376,8.45753852 L185.824321,14.6726074 C187.696581,17.0498452 188.813387,20.049523 188.813387,23.3101059 C188.813387,31.0274837 182.557334,37.2833533 174.840322,37.2833533 C172.163208,37.2833533 169.66247,36.5299119 167.537356,35.2244711 L161.553369,41.9494578 L161.553369,41.9494578 Z" id="Path" fill="#E31E24" fill-rule="nonzero"></path>
            <path d="M161.553369,41.9494578 C167.731662,49.3669593 174.840322,54.9648941 174.840322,54.9648941 C174.840322,54.9648941 197.073433,37.4595467 197.073433,23.3406607 C197.073433,17.6162985 194.908249,12.3983778 191.354376,8.45753852 L185.824321,14.6726074 C187.696581,17.0498452 188.813387,20.049523 188.813387,23.3101059 C188.813387,31.0274837 182.557334,37.2833533 174.840322,37.2833533 C172.163208,37.2833533 169.66247,36.5299119 167.537356,35.2244711 L161.553369,41.9494578 L161.553369,41.9494578 Z" id="Path"></path>
            <path d="M152.216769,23.3410267 C152.216769,17.0935733 154.749159,11.4370904 158.843321,7.34329407 C162.937118,3.24913185 168.593052,0.71729037 174.840322,0.71729037 C178.108773,0.71729037 181.21713,1.41200074 184.025978,2.66255259 C186.943322,3.96085778 189.53481,5.85781778 191.644373,8.19663333 C193.484614,10.2374022 194.959844,12.6177504 195.96486,15.2339378 C196.933283,17.7531548 197.464059,20.4866215 197.464059,23.3410267 C197.464059,37.6496452 175.146968,55.2193956 175.083297,55.2700763 L174.841237,55.4618215 L174.59936,55.2700763 C174.578502,55.2536096 167.458681,49.6472585 161.254041,42.1982874 C158.863081,39.3277815 156.610076,36.1855756 154.953346,32.9868341 C153.283626,29.7621119 152.216769,26.4753652 152.216769,23.3410267 L152.216769,23.3410267 Z M159.395687,7.89584222 C155.442955,11.8485741 152.998204,17.3091037 152.998204,23.3410267 C152.998204,26.3412533 154.030298,29.5088911 155.646593,32.6295074 C157.276244,35.7764704 159.495584,38.8712889 161.852696,41.7006281 C167.341951,48.291503 173.551165,53.4250778 174.83959,54.466137 C177.232197,52.534597 196.682624,36.4320267 196.682624,23.3410267 C196.682624,20.5784689 196.171242,17.9390452 195.238497,15.5114926 C194.269891,12.9908119 192.84461,10.6926141 191.064563,8.71862667 C189.02599,6.45921704 186.524154,4.62647704 183.709086,3.37372963 C181.001234,2.16855259 178.000276,1.49835926 174.840322,1.49835926 C168.809131,1.49835926 163.348236,3.94329333 159.395687,7.89584222 L159.395687,7.89584222 Z M174.840322,8.54371407 C166.685114,8.54371407 160.073747,15.1547148 160.073747,23.3106548 C160.073747,28.5565689 162.812154,33.1604659 166.934676,35.7799467 C169.220798,37.2323067 171.931394,38.0770467 174.840322,38.0770467 C182.995713,38.0770467 189.60708,31.46568 189.60708,23.3106548 C189.60708,19.7838607 188.369336,16.5479778 186.306428,14.0088178 C183.599125,10.6752326 179.469468,8.54371407 174.840322,8.54371407 Z M167.537539,35.224837 C163.536321,32.7667296 160.867258,28.3501867 160.867258,23.309923 C160.867258,15.593277 167.12331,9.33759037 174.840322,9.33759037 C179.296934,9.33759037 183.265767,11.4233681 185.824504,14.6724244 C187.696764,17.0496622 188.813753,20.049523 188.813753,23.309923 C188.813753,31.0276667 182.557334,37.2833533 174.840322,37.2833533 C172.163574,37.2833533 169.66247,36.5299119 167.537539,35.224837 L167.537539,35.224837 Z" id="Shape" fill="#E73A40" fill-rule="nonzero"></path>
        </g>
    </g>
</svg>